# Blender v2.69 (sub 0) OBJ File: ''
# www.blender.org
o cube
v 0.500000 0.500000 -0.500000
v 0.500000 -0.500000 -0.500000
v -0.500000 -0.500000 -0.500000
v -0.500000 0.500000 -0.500000
v 0.500000 0.500000 0.500000
v 0.500000 -0.500000 0.500000
v -0.500000 -0.500000 0.500000
v -0.500000 0.500000 0.500000
vt 0.999500 0.000000
vt 0.999500 0.999500
vt 0.000000 0.000000
vt 0.000000 0.999500
vn 0.000000 0.000000 -1.000000
vn 0.000000 -1.000000 0.000000
vn -1.000000 0.000000 0.000000
vn 0.000000 0.000000 1.000000
vn 0.000000 1.000000 0.000000
vn 1.000000 0.000000 0.000000
s off
f 1/1/1 2/2/1 4/3/1
f 8/4/4 6/1/4 5/2/4
f 8/3/5 1/2/5 4/4/5
f 3/2/2 2/4/2 7/1/2
f 4/2/3 3/4/3 8/1/3
f 5/3/6 2/2/6 1/4/6
f 2/2/1 3/4/1 4/3/1
f 8/4/4 7/3/4 6/1/4 
f 8/3/5 5/1/5 1/2/5
f 2/4/2 6/3/2 7/1/2
f 3/4/3 7/3/3 8/1/3
f 5/3/6 6/1/6 2/2/6