# Blender v2.71 (sub 0) OBJ File: ''
# www.blender.org
o Plane_Plane.001
v 0.007565 0.473116 -0.451529
v -0.026846 0.421784 -0.496476
v -0.058978 0.469769 -0.508732
v 0.473836 0.484076 0.017867
v 0.416545 0.625281 -0.047562
v 0.483945 0.435458 0.230193
v 0.480582 0.415204 0.159485
v -0.267146 -0.015495 0.021872
v -0.304731 0.029957 0.283686
v -0.026393 0.131256 0.268046
v -0.265492 0.070547 -0.494285
v -0.275064 0.503777 -0.197328
v -0.051508 0.155389 -0.175470
v 0.262620 0.066106 -0.261568
v 0.462710 0.639462 -0.225716
v 0.292911 0.245516 -0.202548
v 0.393518 0.163505 -0.306823
v 0.355423 0.605698 -0.115011
v 0.408419 0.681412 -0.158941
v 0.461486 0.677037 -0.147546
v 0.106152 0.020700 -0.200449
v 0.106794 0.045409 -0.284081
v 0.141324 0.017467 -0.030138
v 0.197227 0.063590 -0.130209
v 0.074807 0.077507 -0.499883
v 0.063978 0.125782 -0.306235
v 0.136769 0.003267 -0.500037
v 0.211365 0.003723 -0.335044
v -0.194012 0.510668 -0.164694
v -0.121448 0.642852 -0.211549
v -0.141490 0.174167 -0.117876
v -0.050947 0.040519 -0.105645
v 0.030709 0.011339 -0.109688
v -0.358888 0.275936 -0.220777
v -0.419820 0.213462 -0.238981
v -0.220142 0.099407 -0.095414
v -0.308145 0.107580 -0.116419
v -0.375388 0.002479 -0.499947
v -0.421750 0.018499 -0.371929
v -0.331580 0.124776 -0.416788
v -0.248548 0.699142 -0.328158
v -0.170868 0.115807 0.264141
v -0.153336 0.064461 0.225818
v -0.205969 0.698847 0.373290
v -0.079853 0.434944 0.390850
v 0.039046 0.370962 0.404084
v -0.430198 0.279295 0.318703
v -0.398411 0.256960 0.282350
v -0.445583 0.262476 0.284896
v -0.294608 0.221636 0.373958
v -0.301585 -0.196176 -0.033383
v -0.417001 -0.013307 0.145894
v 0.344130 0.046510 0.223239
v 0.313158 0.054362 0.439784
v 0.445888 0.448475 0.396195
v 0.489404 0.427535 0.376748
v 0.138075 0.014690 0.319497
v 0.156495 0.018828 0.434614
v 0.086835 0.305786 0.417384
v 0.256460 0.001659 0.394924
v 0.079467 -0.001168 0.097485
v 0.379511 0.351925 0.021702
v 0.296979 0.031549 0.065256
v 0.435290 0.431362 0.048421
v -0.148616 0.017872 -0.007867
v -0.186159 0.023063 0.160781
v -0.170330 0.552151 -0.439113
v -0.124170 0.429543 -0.498576
v -0.173821 0.332119 -0.495403
v -0.196328 0.762933 -0.330861
v -0.058343 0.583660 -0.334204
v 0.487490 -0.000129 -0.499547
v 0.367203 0.017848 -0.345505
v 0.364138 0.000793 -0.385972
v 0.486131 0.066242 -0.335664
v -0.105360 0.613297 -0.387153
v -0.043346 0.514617 -0.266230
v 0.012405 0.494618 -0.385933
v -0.137861 0.735867 -0.257160
v -0.230130 0.635392 -0.390052
v -0.026868 0.046612 0.208497
v -0.241195 0.012780 0.003785
v 0.383718 0.336445 0.111244
v 0.418881 0.363406 0.178609
v 0.269559 0.002196 0.092423
v 0.304301 0.002264 0.209614
v 0.205613 0.057012 -0.050392
v 0.173364 0.000164 0.267089
v 0.062623 0.008185 0.192603
v 0.180025 0.000150 0.499986
v 0.054055 0.357879 0.450643
v 0.063797 0.070739 0.271934
v 0.388367 0.407975 0.402093
v 0.443695 0.377886 0.444321
v 0.463471 0.106565 0.501026
v 0.485543 0.398437 0.409504
v 0.286207 0.012003 0.327876
v 0.325079 0.005544 0.499707
v -0.302000 0.001875 0.132394
v -0.489221 0.005078 0.239210
v -0.379696 0.014872 0.195719
v -0.480844 -0.036348 0.024686
v -0.334321 -0.240188 -0.006791
v -0.486541 -0.015736 0.068142
v -0.300600 0.169059 0.343836
v -0.340235 0.016962 0.494604
v -0.330712 0.174644 0.374761
v -0.280947 0.058445 0.496205
v -0.408111 0.028757 0.489117
v -0.497828 0.067096 0.394159
v -0.438451 0.046191 0.227801
v -0.488952 0.020996 0.275581
v -0.079872 0.438883 0.442049
v -0.228283 0.658540 0.362283
v -0.220345 0.675076 0.433555
v -0.159809 0.453231 0.498856
v -0.096175 0.321584 0.324214
v -0.372029 0.213711 -0.288280
v -0.288296 0.548954 -0.256212
v -0.488828 0.002470 -0.356259
v -0.493620 0.039853 -0.309036
v -0.486754 -0.000631 -0.498896
v -0.311170 0.031155 -0.500947
v -0.295801 0.019797 -0.045396
v -0.460786 0.168783 -0.115093
v -0.449186 -0.001766 -0.037095
v -0.492382 0.031425 -0.051816
v -0.364097 0.022683 -0.067057
v -0.511377 0.167928 -0.195194
v -0.507933 0.138320 -0.240538
v -0.361586 0.234683 -0.182283
v -0.139194 0.056617 -0.073772
v -0.202555 0.713557 -0.232956
v 0.092380 0.111162 -0.413105
v 0.356061 0.621194 -0.175167
v 0.464556 0.638662 -0.067305
v 0.268854 0.199336 -0.086983
v 0.398948 0.601800 -0.242229
v 0.167620 0.024258 -0.250376
v 0.234081 0.099596 -0.193941
v -0.318611 0.013692 0.243099
v -0.292734 -0.244171 0.002526
v 0.406939 0.393720 0.289403
v 0.478452 0.433144 0.064245
v -0.092817 0.463339 -0.499627
v -0.047274 0.574604 -0.439876
v 0.488424 0.007851 -0.383866
v -0.508797 0.152513 -0.133037
v -0.202222 0.451085 0.488512
v -0.232288 0.318098 0.489051
v -0.256022 0.148954 0.493858
v 0.021353 0.236539 0.497672
v -0.120358 0.412246 0.496735
v -0.490999 0.076686 0.344271
v -0.484184 -0.005492 0.491989
v -0.308976 0.023905 0.495990
v 0.397354 0.084040 0.503974
v 0.432110 0.110059 0.499999
v 0.485837 0.093368 0.493444
v 0.118121 0.018863 0.500038
vt 0.839828 0.565616
vt 0.881933 0.575393
vt 0.880395 0.607139
vt 0.402757 0.036449
vt 0.484902 0.007834
vt 0.481826 0.041201
vt 0.376198 0.259998
vt 0.485456 0.312074
vt 0.477009 0.363105
vt 0.618877 0.559357
vt 0.724835 0.455070
vt 0.742838 0.598004
vt 0.928650 0.107441
vt 0.886934 0.377861
vt 0.819913 0.183462
vt 0.817872 0.435615
vt 0.686214 0.677392
vt 0.721937 0.651157
vt 0.733369 0.679636
vt 0.200543 0.890977
vt 0.211574 0.870153
vt 0.216332 0.893556
vt 0.179152 0.404730
vt 0.284066 0.463791
vt 0.211507 0.469835
vt 0.212499 0.380731
vt 0.384729 0.475462
vt 0.265285 0.262505
vt 0.831753 0.676594
vt 0.888500 0.657600
vt 0.900399 0.706176
vt 0.690640 0.253290
vt 0.782995 0.178038
vt 0.764773 0.307052
vt 0.353687 0.284766
vt 0.071284 0.481351
vt 0.081832 0.526153
vt 0.091914 0.100572
vt 0.129461 0.121881
vt 0.022924 0.174613
vt 0.005278 0.127911
vt 0.101569 0.063470
vt 0.084402 0.231548
vt 0.175318 0.270978
vt 0.111544 0.294171
vt 0.455696 0.808709
vt 0.422549 0.920277
vt 0.363835 0.873095
vt 0.138248 0.828790
vt 0.179780 0.803992
vt 0.169057 0.971275
vt 0.012123 0.672029
vt 0.055027 0.601162
vt 0.069723 0.686549
vt 0.137930 0.605928
vt 0.228144 0.682007
vt 0.079581 0.683369
vt 0.675563 0.808839
vt 0.764755 0.699232
vt 0.731273 0.847638
vt 0.586251 0.899330
vt 0.684404 0.867475
vt 0.639998 0.941164
vt 0.593269 0.637143
vt 0.680156 0.340311
vt 0.803213 0.568020
vt 0.560269 0.320746
vt 0.629035 0.405527
vt 0.707956 0.406637
vt 0.548192 0.477129
vt 0.553571 0.030357
vt 0.564748 0.066287
vt 0.529958 0.071872
vt 0.608121 0.042046
vt 0.609503 0.192094
vt 0.597437 0.001868
vt 0.555439 0.548247
vt 0.554592 0.702939
vt 0.698949 0.719691
vt 0.634416 0.810803
vt 0.831343 0.853111
vt 0.791412 0.700075
vt 0.920859 0.822909
vt 0.215363 0.551004
vt 0.265891 0.655684
vt 0.251059 0.786709
vt 0.437405 0.751114
vt 0.466323 0.799503
vt 0.453413 0.797586
vt 0.358851 0.779272
vt 0.461395 0.721529
vt 0.410201 0.127442
vt 0.380956 0.074048
vt 0.340531 0.131590
vt 0.363967 0.042820
vt 0.843167 0.083713
vt 0.774631 0.613234
vt 0.828090 0.606981
vt 0.882800 0.631200
vt 0.072709 0.383196
vt 0.308194 0.843526
vt 0.087621 0.607440
vt 0.803503 0.916366
vt 0.916731 0.860051
vt 0.904253 0.909115
vt 0.571013 0.776406
vt 0.532392 0.630414
vt 0.612885 0.274239
vt 0.508226 0.221300
vt 0.887903 0.431867
vt 0.508746 0.765482
vt 0.471308 0.636946
vt 0.453350 0.908137
vt 0.503268 0.885419
vt 0.515731 0.915891
vt 0.594279 0.933987
vt 0.678359 0.946346
vt 0.739659 0.960409
vt 0.020100 0.702100
vt 0.019900 0.753000
vt 0.017826 0.849634
vt 0.015900 0.812700
vt 0.129390 0.787859
vt 0.004321 0.634366
vt 0.051458 0.520013
vt 0.067490 0.939685
vt 0.088047 1.000361
vt 0.025400 0.873652
vt 0.290069 0.893901
vt 0.288233 0.943002
vt 0.261944 0.951047
vt 0.272073 0.795954
vt 0.198274 0.106636
vt 0.027148 0.240789
vt 0.017000 0.148200
vt 0.003383 0.506578
vt 0.023885 0.344868
vt 0.014703 0.396394
vt 0.273418 0.545242
vt 0.254020 0.232606
vt 0.325925 0.677596
vt 0.799649 0.636937
vt 0.765060 0.677490
vt 0.743609 0.662142
vt 0.727336 0.125427
vt 0.805630 0.073569
vt 0.294234 0.051916
vt 0.284527 0.108887
vt 0.127745 0.089525
vt 0.523712 0.819776
vt 0.223999 0.051971
vt 0.129329 0.056262
vt -0.005274 0.113344
vt 0.037189 0.894358
vt 0.086496 0.684920
vt 0.731791 0.729372
vt 0.780375 0.969826
vt 0.543995 -0.002211
vt 0.880645 0.993912
vt 0.205476 0.962521
vn 0.824300 0.325000 -0.463500
vn 0.643700 0.212300 -0.735200
vn 0.275400 0.418000 -0.865700
vn -0.374600 0.433900 0.819400
vn 0.052100 0.774300 0.630700
vn -0.323000 0.600200 0.731700
vn -0.714200 0.575400 0.398500
vn -0.613700 0.701000 0.363200
vn -0.231800 0.956900 0.174700
vn 0.645400 0.278500 0.711200
vn 0.866100 0.340300 0.366200
vn 0.832700 0.268600 0.484100
vn -0.024800 0.999100 -0.035000
vn 0.490800 0.866300 -0.093100
vn -0.036300 0.982500 -0.182600
vn 0.967000 0.254400 0.012600
vn -0.064200 0.224600 0.972300
vn 0.511400 0.348800 0.785300
vn -0.392500 0.601600 0.695700
vn -0.182400 0.943200 0.277600
vn 0.454100 0.681400 -0.574000
vn -0.588400 0.617100 -0.522500
vn 0.574500 0.769800 -0.278200
vn 0.216400 0.931100 -0.293500
vn 0.536700 0.514100 -0.669000
vn 0.082900 0.995200 -0.050700
vn 0.022400 0.999600 0.014800
vn -0.461200 0.887100 0.016200
vn -0.234900 0.405600 -0.883300
vn -0.444700 0.249700 -0.860200
vn -0.523100 0.194700 -0.829700
vn -0.464300 0.612000 -0.640200
vn -0.181600 0.719000 -0.670900
vn -0.003900 0.970400 -0.241600
vn -0.318800 0.923600 0.213000
vn 0.919200 0.376000 -0.117300
vn 0.597400 0.673000 -0.436100
vn 0.039500 0.363000 0.930900
vn -0.772500 0.545200 0.325700
vn -0.515300 0.301900 0.802000
vn 0.271100 0.229800 0.934700
vn 0.489100 0.450900 0.746600
vn -0.812900 0.430900 0.391900
vn -0.772500 0.615800 -0.154600
vn -0.294900 0.955500 0.004400
vn 0.419700 0.890500 0.175700
vn 0.567300 0.739100 -0.363000
vn 0.059500 0.870100 -0.489300
vn -0.131500 0.799400 0.586200
vn -0.092800 0.554000 -0.827300
vn -0.705700 0.479600 0.521400
vn 0.329700 0.380800 0.863900
vn 0.639200 0.672500 0.372900
vn -0.251300 0.724500 0.641700
vn 0.305800 0.312400 -0.899300
vn -0.414200 0.356200 -0.837600
vn 0.090500 0.941300 -0.325300
vn -0.910200 0.392600 0.132100
vn -0.859400 0.480100 -0.175600
vn -0.793700 0.389400 -0.467300
vn -0.191600 0.707500 0.680200
vn -0.600000 0.745900 -0.289100
vn -0.480500 0.873900 -0.073000
vn 0.335400 0.221600 0.915600
vn -0.137200 0.974700 -0.176200
vn 0.921300 0.379900 0.083000
vn -0.692100 0.721700 0.000200
vn -0.019100 0.992400 0.121400
vn 0.580600 0.792300 0.187700
vn 0.124000 0.974100 0.188800
vn -0.342400 0.935400 -0.087900
vn -0.847200 0.465900 -0.255300
vn -0.851600 0.411700 0.324200
vn -0.365200 0.360800 -0.858200
vn -0.856100 0.242900 -0.456200
vn -0.050400 0.610600 -0.790300
vn 0.416900 0.687200 0.594900
vn -0.083700 0.406200 0.909900
vn -0.654100 0.276700 0.703900
vn -0.464600 0.529300 0.709900
vn -0.732800 0.313600 -0.603800
vn -0.547700 0.346200 -0.761700
vn -0.523600 0.398300 -0.753100
vn 0.230400 0.437300 -0.869300
vn -0.179300 0.683600 -0.707400
vn 0.124800 0.667400 -0.734200
vn -0.926900 0.374500 0.024700
vn -0.416300 0.280700 0.864800
vn -0.526000 0.846800 -0.078900
vn -0.318700 0.866100 -0.385100
vn -0.259900 0.938200 0.228500
vn -0.858500 0.343400 0.380800
vn -0.659300 0.715300 0.231500
vn -0.902000 0.364100 0.232000
vn -0.192200 0.884700 0.424600
vn -0.117300 0.902700 -0.414000
vn 0.823700 0.564700 0.051400
vn 0.444600 0.735000 -0.511900
vn -0.324700 0.322400 -0.889200
vn 0.763400 0.636600 0.109000
vn 0.007700 0.817700 -0.575500
vn 0.699100 0.542300 -0.466000
vn -0.498300 0.716300 -0.488400
vn -0.528500 0.628300 -0.570900
vn -0.282700 0.940900 -0.186700
vn -0.040900 0.488800 0.871400
vn 0.208000 0.654700 0.726700
vn -0.789600 0.537300 -0.296300
vn -0.912400 0.340200 0.227500
vn 0.822100 0.437200 -0.364800
vn -0.368000 0.499200 0.784400
vn 0.058100 0.940100 0.335900
vn 0.767300 0.598400 0.230500
vn 0.348300 0.481400 0.804300
vn 0.052400 0.524200 0.850000
vn -0.440800 0.739100 0.509300
vn -0.470100 0.565300 -0.677800
vn -0.428800 0.560400 -0.708600
vn -0.482700 0.171700 0.858800
vn -0.624500 0.138600 0.768600
vn -0.663800 0.388400 0.639100
vn -0.018400 0.031000 0.999400
vn -0.966600 0.235900 0.099600
vn 0.471900 0.522200 0.710300
vn 0.673800 0.557800 0.484500
vn -0.192400 0.628600 0.753600
vn -0.311500 0.741800 0.593900
vn -0.333400 0.561200 0.757600
vn -0.487400 0.280200 -0.827000
vn -0.422200 0.795900 -0.434000
vn -0.815500 0.384200 -0.432700
vn 0.074300 0.947300 -0.311600
vn -0.815900 0.539800 -0.207000
vn -0.530700 0.745800 0.402700
vn -0.028100 0.204600 0.978400
vn 0.547400 0.201200 0.812300
vn 0.180600 0.981900 0.057600
vn 0.666300 0.635300 0.390500
vn 0.149000 0.650000 -0.745100
vn -0.898800 0.432700 -0.070100
vn -0.093500 0.965700 -0.242200
vn 0.423600 0.713700 -0.557800
vn -0.112600 0.940400 -0.320900
vn 0.522400 0.780200 0.344000
vn -0.325900 0.241300 -0.914100
vn -0.112700 0.396000 -0.911300
vn -0.578700 0.809800 0.096600
vn -0.850700 0.523500 0.046800
vn -0.056100 0.925400 0.374800
vn 0.035200 0.353600 0.934700
vn -0.547400 0.810900 -0.206900
vn 0.517600 0.804100 0.292500
vn 0.435400 0.239200 0.867900
vn -0.062300 0.606300 0.792800
vn -0.659300 0.340100 -0.670500
vn -0.922100 0.309500 0.232200
vn -0.256300 0.875300 -0.410200
vn 0.068700 0.995700 0.062200
vn -0.028100 0.999400 -0.022100
vn -0.971800 0.195100 -0.132800
s 1
f 1/1/1 2/2/2 3/3/3
f 4/4/4 136/5/5 5/6/6
f 63/7/7 87/8/8 23/9/9
f 13/10/10 26/11/11 77/12/12
f 72/13/13 27/14/14 74/15/15
f 26/11/11 27/14/14 134/16/16
f 29/17/17 30/18/18 133/19/19
f 47/20/20 48/21/21 49/22/22
f 57/23/23 89/24/24 92/25/25
f 89/24/24 88/26/26 61/27/27
f 86/28/28 61/27/27 88/26/26
f 67/29/29 68/30/30 69/31/31
f 14/32/32 73/33/33 28/34/34
f 63/7/7 85/35/35 86/28/28
f 59/36/36 92/25/25 46/37/37
f 94/38/38 93/39/39 157/40/40
f 95/41/41 96/42/42 94/38/38
f 54/43/43 97/44/44 60/45/45
f 103/46/46 104/47/47 52/48/48
f 107/49/49 105/50/50 48/21/21
f 47/20/20 49/22/22 110/51/51
f 116/52/52 113/53/53 115/54/54
f 117/55/55 42/56/56 44/57/57
f 34/58/58 41/59/59 118/60/60
f 125/61/61 35/62/62 129/63/63
f 31/64/64 30/18/18 29/17/17
f 28/34/34 27/14/14 139/65/65
f 14/32/32 28/34/34 139/65/65
f 134/16/16 1/1/1 78/66/66
f 87/8/8 24/67/67 23/9/9
f 21/68/68 22/69/69 33/70/70
f 19/71/71 135/72/72 18/73/73
f 5/6/6 136/5/5 19/71/71
f 135/72/72 138/74/74 16/75/75
f 15/76/76 138/74/74 19/71/71
f 32/77/77 22/69/69 13/10/10
f 36/78/78 12/79/79 131/80/80
f 40/81/81 80/82/82 11/83/83
f 10/84/84 43/85/85 117/55/55
f 46/37/37 10/84/84 117/55/55
f 105/50/50 9/86/86 48/21/21
f 8/87/87 51/88/88 142/89/89
f 99/90/90 82/91/91 8/87/87
f 4/4/4 5/6/6 62/92/92
f 64/93/93 62/92/92 83/94/94
f 144/95/95 4/4/4 64/93/93
f 147/96/96 72/13/13 74/15/15
f 71/97/97 78/66/66 146/98/98
f 67/29/29 145/99/99 68/30/30
f 23/9/9 33/70/70 61/27/27
f 58/100/100 88/26/26 57/23/23
f 9/86/86 101/101/101 48/21/21
f 46/37/37 117/55/55 45/102/102
f 117/55/55 43/85/85 42/56/56
f 41/59/59 80/82/82 40/81/81
f 39/103/103 123/104/104 38/105/105
f 36/78/78 131/80/80 37/106/106
f 132/107/107 13/10/10 31/64/64
f 31/64/64 13/10/10 30/18/18
f 140/108/108 139/65/65 24/67/67
f 24/67/67 21/68/68 23/9/9
f 137/109/109 135/72/72 16/75/75
f 137/109/109 140/108/108 24/67/67
f 5/6/6 18/73/73 62/92/92
f 25/110/110 2/2/2 1/1/1
f 134/16/16 25/110/110 1/1/1
f 139/65/65 22/69/69 21/68/68
f 139/65/65 27/14/14 22/69/69
f 82/91/91 132/107/107 124/111/111
f 65/112/112 33/70/70 32/77/77
f 65/112/112 32/77/77 132/107/107
f 125/61/61 131/80/80 35/62/62
f 102/113/113 126/114/114 127/115/115
f 127/115/115 125/61/61 148/116/116
f 8/87/87 82/91/91 124/111/111
f 8/87/87 124/111/111 51/88/88
f 130/117/117 35/62/62 121/118/118
f 35/62/62 34/58/58 118/60/60
f 105/50/50 42/56/56 9/86/86
f 149/119/119 116/52/52 115/54/54
f 150/120/120 108/121/121 151/122/122
f 149/119/119 115/54/54 150/120/120
f 115/54/54 50/123/123 108/121/121
f 153/124/124 91/125/125 113/53/53
f 153/124/124 113/53/53 116/52/52
f 109/126/126 110/51/51 155/127/127
f 108/121/121 107/49/49 156/128/128
f 109/126/126 107/49/49 47/20/20
f 103/46/46 102/113/113 104/47/47
f 111/129/129 100/130/130 112/131/131
f 141/132/132 99/90/90 101/101/101
f 54/43/43 143/133/133 97/44/44
f 54/43/43 93/39/39 143/133/133
f 60/45/45 86/28/28 88/26/26
f 157/40/40 54/43/43 98/134/134
f 158/135/135 95/41/41 94/38/38
f 157/40/40 93/39/39 54/43/43
f 57/23/23 92/25/25 59/36/36
f 58/100/100 57/23/23 59/36/36
f 92/25/25 10/84/84 46/37/37
f 152/136/136 58/100/100 91/125/125
f 91/125/125 59/36/36 46/37/37
f 90/137/137 58/100/100 160/138/138
f 92/25/25 81/139/139 10/84/84
f 83/94/94 62/92/92 63/7/7
f 53/140/140 86/28/28 97/44/44
f 43/85/85 66/141/141 9/86/86
f 76/142/142 67/29/29 70/143/143
f 70/143/143 80/82/82 41/59/59
f 80/82/82 69/31/31 11/83/83
f 80/82/82 67/29/29 69/31/31
f 79/144/144 70/143/143 133/19/19
f 30/18/18 79/144/144 133/19/19
f 30/18/18 77/12/12 79/144/144
f 71/97/97 76/142/142 79/144/144
f 73/33/33 74/15/15 28/34/34
f 15/76/76 17/145/145 138/74/74
f 75/146/146 147/96/96 73/33/33
f 77/12/12 78/66/66 71/97/97
f 81/139/139 89/24/24 66/141/141
f 7/147/147 64/93/93 84/148/148
f 53/140/140 63/7/7 86/28/28
f 84/148/148 63/7/7 53/140/140
f 62/92/92 137/109/109 63/7/7
f 94/38/38 96/42/42 55/149/149
f 66/141/141 99/90/90 141/132/132
f 103/46/46 51/88/88 126/114/114
f 107/49/49 50/123/123 105/50/50
f 113/53/53 46/37/37 45/102/102
f 115/54/54 113/53/53 44/57/57
f 35/62/62 118/60/60 39/103/103
f 124/111/111 36/78/78 37/106/106
f 128/150/150 37/106/106 125/61/61
f 27/14/14 25/110/110 134/16/16
f 137/109/109 24/67/67 87/8/8
f 23/9/9 21/68/68 33/70/70
f 16/75/75 17/145/145 14/32/32
f 12/79/79 34/58/58 131/80/80
f 6/151/151 84/148/148 143/133/133
f 56/152/152 6/151/151 55/149/149
f 1/1/1 3/3/3 146/98/98
f 16/75/75 138/74/74 17/145/145
f 26/11/11 22/69/69 27/14/14
f 39/103/103 118/60/60 40/81/81
f 44/57/57 113/53/53 45/102/102
f 103/46/46 142/89/89 51/88/88
f 55/149/149 96/42/42 56/152/152
f 86/28/28 85/35/35 61/27/27
f 7/147/147 144/95/95 64/93/93
f 73/33/33 147/96/96 74/15/15
f 14/32/32 17/145/145 73/33/33
f 77/12/12 71/97/97 79/144/144
f 77/12/12 26/11/11 78/66/66
f 133/19/19 70/143/143 41/59/59
f 80/82/82 70/143/143 67/29/29
f 43/85/85 81/139/139 66/141/141
f 66/141/141 61/27/27 82/91/91
f 84/148/148 64/93/93 83/94/94
f 63/7/7 137/109/109 87/8/8
f 98/134/134 60/45/45 90/137/137
f 95/41/41 159/153/153 96/42/42
f 98/134/134 54/43/43 60/45/45
f 111/129/129 101/101/101 100/130/130
f 102/113/113 103/46/46 126/114/114
f 106/154/154 156/128/128 107/49/49
f 109/126/126 47/20/20 110/51/51
f 112/131/131 49/22/22 111/129/129
f 105/50/50 114/155/155 42/56/56
f 118/60/60 41/59/59 40/81/81
f 34/58/58 119/156/156 41/59/59
f 120/157/157 39/103/103 38/105/105
f 39/103/103 40/81/81 123/104/104
f 129/63/63 35/62/62 130/117/117
f 78/66/66 26/11/11 134/16/16
f 5/6/6 19/71/71 18/73/73
f 140/108/108 16/75/75 14/32/32
f 135/72/72 19/71/71 138/74/74
f 30/18/18 13/10/10 77/12/12
f 142/89/89 99/90/90 8/87/87
f 93/39/39 55/149/149 143/133/133
f 61/27/27 33/70/70 65/112/112
f 78/66/66 1/1/1 146/98/98
f 71/97/97 146/98/98 76/142/142
f 76/142/142 146/98/98 67/29/29
f 67/29/29 3/3/3 145/99/99
f 67/29/29 146/98/98 3/3/3
f 64/93/93 4/4/4 62/92/92
f 61/27/27 85/35/35 23/9/9
f 52/48/48 99/90/90 142/89/89
f 125/61/61 37/106/106 131/80/80
f 132/107/107 32/77/77 13/10/10
f 24/67/67 139/65/65 21/68/68
f 20/158/158 15/76/76 19/71/71
f 137/109/109 16/75/75 140/108/108
f 62/92/92 18/73/73 137/109/109
f 32/77/77 33/70/70 22/69/69
f 13/10/10 22/69/69 26/11/11
f 36/78/78 29/17/17 12/79/79
f 31/64/64 29/17/17 36/78/78
f 29/17/17 133/19/19 12/79/79
f 82/91/91 65/112/112 132/107/107
f 124/111/111 132/107/107 36/78/78
f 148/116/116 125/61/61 129/63/63
f 126/114/114 51/88/88 128/150/150
f 127/115/115 126/114/114 125/61/61
f 51/88/88 124/111/111 128/150/150
f 128/150/150 124/111/111 37/106/106
f 120/157/157 38/105/105 122/159/159
f 121/118/118 39/103/103 120/157/157
f 12/79/79 119/156/156 34/58/58
f 114/155/155 44/57/57 42/56/56
f 45/102/102 117/55/55 44/57/57
f 50/123/123 114/155/155 105/50/50
f 9/86/86 42/56/56 43/85/85
f 150/120/120 115/54/54 108/121/121
f 115/54/54 114/155/155 50/123/123
f 115/54/54 44/57/57 114/155/155
f 153/124/124 152/136/136 91/125/125
f 49/22/22 48/21/21 111/129/129
f 49/22/22 112/131/131 154/160/160
f 110/51/51 49/22/22 154/160/160
f 109/126/126 106/154/154 107/49/49
f 47/20/20 107/49/49 48/21/21
f 52/48/48 142/89/89 103/46/46
f 111/129/129 48/21/21 101/101/101
f 100/130/130 52/48/48 104/47/47
f 101/101/101 52/48/48 100/130/130
f 141/132/132 9/86/86 66/141/141
f 101/101/101 9/86/86 141/132/132
f 101/101/101 99/90/90 52/48/48
f 97/44/44 143/133/133 53/140/140
f 60/45/45 97/44/44 86/28/28
f 158/135/135 94/38/38 157/40/40
f 94/38/38 55/149/149 93/39/39
f 91/125/125 58/100/100 59/36/36
f 152/136/136 160/138/138 58/100/100
f 90/137/137 88/26/26 58/100/100
f 89/24/24 57/23/23 88/26/26
f 92/25/25 89/24/24 81/139/139
f 66/141/141 82/91/91 99/90/90
f 10/84/84 81/139/139 43/85/85
f 133/19/19 41/59/59 119/156/156
f 12/79/79 133/19/19 119/156/156
f 79/144/144 76/142/142 70/143/143
f 15/76/76 75/146/146 17/145/145
f 17/145/145 75/146/146 73/33/33
f 66/141/141 89/24/24 61/27/27
f 61/27/27 65/112/112 82/91/91
f 84/148/148 83/94/94 63/7/7
f 90/137/137 60/45/45 88/26/26
f 53/140/140 143/133/133 84/148/148
f 107/49/49 108/121/121 50/123/123
f 113/53/53 91/125/125 46/37/37
f 121/118/118 35/62/62 39/103/103
f 126/114/114 128/150/150 125/61/61
f 131/80/80 34/58/58 35/62/62
f 36/78/78 132/107/107 31/64/64
f 19/71/71 136/5/5 20/158/158
f 18/73/73 135/72/72 137/109/109
f 140/108/108 14/32/32 139/65/65
f 28/34/34 74/15/15 27/14/14
f 123/104/104 40/81/81 11/83/83
f 6/151/151 7/147/147 84/148/148
f 55/149/149 6/151/151 143/133/133
f 85/35/35 63/7/7 23/9/9
