# Blender v2.78 (sub 0) OBJ File: 'turret.blend'
# www.blender.org
o turret3
v -0.120588 -0.000000 0.500000
v -0.500000 0.000000 -0.500000
v -0.490393 -0.097545 -0.500000
v -0.118271 -0.023525 0.500000
v -0.461940 -0.191342 -0.500000
v -0.111409 -0.046147 0.500000
v -0.415735 -0.277785 -0.500000
v -0.100265 -0.066995 0.500000
v -0.353553 -0.353554 -0.500000
v -0.085269 -0.085268 0.500000
v -0.277785 -0.415735 -0.500000
v -0.191342 -0.461940 -0.500000
v -0.046147 -0.111408 0.500000
v -0.097545 -0.490393 -0.500000
v -0.023526 -0.118270 0.500000
v 0.000000 -0.500000 -0.500000
v 0.097545 -0.490393 -0.500000
v 0.023525 -0.118270 0.500000
v 0.191342 -0.461940 -0.500000
v 0.046147 -0.111408 0.500000
v 0.277785 -0.415735 -0.500000
v 0.353553 -0.353554 -0.500000
v 0.085268 -0.085268 0.500000
v 0.415735 -0.277785 -0.500000
v 0.461940 -0.191342 -0.500000
v 0.111409 -0.046147 0.500000
v 0.490393 -0.097545 -0.500000
v 0.118271 -0.023525 0.500000
v 0.500000 0.000000 -0.500000
v 0.490393 0.097545 -0.500000
v 0.118271 0.023526 0.500000
v 0.461940 0.191342 -0.500000
v 0.111409 0.046147 0.500000
v 0.415735 0.277785 -0.500000
v 0.100265 0.066995 0.500000
v 0.353553 0.353553 -0.500000
v 0.277785 0.415735 -0.500000
v 0.066995 0.100265 0.500000
v 0.191341 0.461940 -0.500000
v 0.046147 0.111409 0.500000
v 0.097545 0.490392 -0.500000
v 0.000000 0.500000 -0.500000
v 0.000000 0.120588 0.500000
v -0.097546 0.490392 -0.500000
v -0.023526 0.118271 0.500000
v -0.191342 0.461939 -0.500000
v -0.277786 0.415734 -0.500000
v -0.066995 0.100265 0.500000
v -0.353554 0.353553 -0.500000
v -0.085269 0.085269 0.500000
v -0.415735 0.277784 -0.500000
v -0.100265 0.066995 0.500000
v -0.461940 0.191341 -0.500000
v -0.111409 0.046147 0.500000
v -0.490393 0.097544 -0.500000
v 0.120588 -0.000000 0.500000
v -0.118271 0.023526 0.500000
v 0.066995 -0.100265 0.500000
v -0.066995 -0.100265 0.500000
v 0.000000 -0.120588 0.500000
v 0.100265 -0.066995 0.500000
v 0.085268 0.085269 0.500000
v 0.023525 0.118271 0.500000
v -0.046147 0.111409 0.500000
v 0.000000 0.209172 -0.190828
v -0.000000 0.209172 -0.609172
v -0.040807 0.205153 -0.190828
v -0.040807 0.205153 -0.609172
v -0.080047 0.193250 -0.190828
v -0.080047 0.193250 -0.609172
v -0.116210 0.173920 -0.190828
v -0.116210 0.173920 -0.609172
v -0.147907 0.147907 -0.190828
v -0.147907 0.147907 -0.609172
v -0.173920 0.116210 -0.190828
v -0.173920 0.116210 -0.609172
v -0.193250 0.080047 -0.190828
v -0.193250 0.080047 -0.609172
v -0.205153 0.040807 -0.190828
v -0.205153 0.040807 -0.609172
v -0.209172 -0.000000 -0.190828
v -0.209172 -0.000000 -0.609172
v -0.205153 -0.040808 -0.190828
v -0.205153 -0.040808 -0.609172
v -0.193250 -0.080047 -0.190828
v -0.193250 -0.080047 -0.609172
v -0.173920 -0.116210 -0.190828
v -0.173920 -0.116210 -0.609172
v -0.147907 -0.147907 -0.190828
v -0.147907 -0.147907 -0.609172
v -0.116210 -0.173920 -0.190828
v -0.116210 -0.173920 -0.609172
v -0.080047 -0.193250 -0.190828
v -0.080047 -0.193250 -0.609172
v -0.040807 -0.205153 -0.190828
v -0.040807 -0.205153 -0.609172
v 0.000000 -0.209172 -0.190828
v 0.000000 -0.209172 -0.609172
v 0.040808 -0.205153 -0.190828
v 0.040807 -0.205153 -0.609172
v 0.080047 -0.193250 -0.190828
v 0.080047 -0.193250 -0.609172
v 0.116210 -0.173920 -0.190828
v 0.116210 -0.173920 -0.609172
v 0.147907 -0.147907 -0.190828
v 0.147907 -0.147907 -0.609172
v 0.173920 -0.116210 -0.190828
v 0.173920 -0.116210 -0.609172
v 0.193250 -0.080047 -0.190828
v 0.193250 -0.080047 -0.609172
v 0.205153 -0.040807 -0.190828
v 0.205153 -0.040807 -0.609172
v 0.209172 0.000000 -0.190828
v 0.209172 0.000000 -0.609172
v 0.205153 0.040808 -0.190828
v 0.205153 0.040808 -0.609172
v 0.193250 0.080047 -0.190828
v 0.193250 0.080047 -0.609172
v 0.173920 0.116210 -0.190828
v 0.173920 0.116210 -0.609172
v 0.147907 0.147907 -0.190828
v 0.147907 0.147907 -0.609172
v 0.116210 0.173920 -0.190828
v 0.116210 0.173920 -0.609172
v 0.080046 0.193250 -0.190828
v 0.080046 0.193250 -0.609172
v 0.040807 0.205153 -0.190828
v 0.040807 0.205153 -0.609172
vt 0.4631 0.4282
vt 0.4542 0.4311
vt 0.3470 0.0216
vt 0.4591 0.5154
vt 0.4753 0.6808
vt 0.4591 0.6808
vt 0.4753 0.5154
vt 0.4915 0.6808
vt 0.4915 0.5154
vt 0.5077 0.6808
vt 0.5077 0.5154
vt 0.5239 0.6808
vt 0.5239 0.5154
vt 0.5401 0.6808
vt 0.5401 0.5154
vt 0.5563 0.6808
vt 0.5725 0.5154
vt 0.5725 0.6808
vt 0.5887 0.5154
vt 0.5887 0.6808
vt 0.6050 0.6808
vt 0.6212 0.5154
vt 0.6212 0.6808
vt 0.6374 0.6808
vt 0.6374 0.5154
vt 0.6536 0.6808
vt 0.6536 0.5154
vt 0.6698 0.6808
vt 0.6698 0.5154
vt 0.6860 0.6808
vt 0.6860 0.5154
vt 0.7022 0.6808
vt 0.7022 0.5154
vt 0.7184 0.6808
vt 0.7184 0.5154
vt 0.7346 0.6808
vt 0.7346 0.5154
vt 0.7509 0.6808
vt 0.7509 0.5154
vt 0.7671 0.6808
vt 0.7671 0.5154
vt 0.7833 0.6808
vt 0.7833 0.5154
vt 0.7995 0.6808
vt 0.7995 0.5154
vt 0.8157 0.6808
vt 0.8157 0.5154
vt 0.8319 0.6808
vt 0.8319 0.5154
vt 0.8481 0.6808
vt 0.8481 0.5154
vt 0.8643 0.6808
vt 0.8643 0.5154
vt 0.8805 0.6808
vt 0.8805 0.5154
vt 0.8968 0.6808
vt 0.8968 0.5154
vt 0.9130 0.6808
vt 0.9130 0.5154
vt 0.9292 0.6808
vt 0.9292 0.5154
vt 0.9454 0.6808
vt 0.9454 0.5154
vt 0.9616 0.6808
vt 0.9616 0.5154
vt 0.9778 0.6808
vt 0.5024 0.8233
vt 0.5630 0.8417
vt 0.5744 0.9581
vt 0.5563 0.5154
vt 0.6050 0.5154
vt 0.9778 0.5154
vt 0.5630 0.9695
vt 0.5495 0.9785
vt 0.5345 0.9847
vt 0.5186 0.9879
vt 0.5024 0.9879
vt 0.4865 0.9847
vt 0.4715 0.9785
vt 0.4580 0.9695
vt 0.4466 0.9581
vt 0.4376 0.9446
vt 0.4314 0.9296
vt 0.4282 0.9137
vt 0.4282 0.8975
vt 0.4314 0.8816
vt 0.4376 0.8666
vt 0.4466 0.8531
vt 0.4580 0.8417
vt 0.4715 0.8327
vt 0.4865 0.8265
vt 0.5186 0.8233
vt 0.5345 0.8265
vt 0.5495 0.8327
vt 0.5744 0.8531
vt 0.5834 0.8666
vt 0.5896 0.8816
vt 0.5928 0.8975
vt 0.5928 0.9137
vt 0.5896 0.9296
vt 0.5834 0.9446
vt 0.4290 0.4433
vt 0.2057 0.0842
vt 0.2393 0.0649
vt 0.4371 0.4386
vt 0.2741 0.0480
vt 0.4455 0.4345
vt 0.3101 0.0335
vt 0.3846 0.0123
vt 0.4227 0.0055
vt 0.4814 0.4243
vt 0.4613 0.0015
vt 0.4907 0.4233
vt 0.5000 0.0002
vt 0.5387 0.0015
vt 0.5093 0.4233
vt 0.5773 0.0055
vt 0.5186 0.4243
vt 0.6154 0.0123
vt 0.6530 0.0216
vt 0.5369 0.4282
vt 0.6899 0.0335
vt 0.7259 0.0480
vt 0.5545 0.4345
vt 0.7607 0.0649
vt 0.5629 0.4386
vt 0.7943 0.0842
vt 0.8265 0.1058
vt 0.5787 0.4485
vt 0.8571 0.1296
vt 0.5861 0.4542
vt 0.8860 0.1555
vt 0.5931 0.4605
vt 0.9130 0.1833
vt 0.9380 0.2129
vt 0.6056 0.4743
vt 0.9608 0.2441
vt 0.6111 0.4819
vt 0.9815 0.2769
vt 0.9998 0.3111
vt 0.6206 0.4980
vt 0.0002 0.3111
vt 0.0185 0.2769
vt 0.3839 0.4898
vt 0.0392 0.2441
vt 0.0620 0.2129
vt 0.3944 0.4743
vt 0.0870 0.1833
vt 0.4004 0.4672
vt 0.1140 0.1555
vt 0.4069 0.4605
vt 0.1429 0.1296
vt 0.4139 0.4542
vt 0.2901 0.5207
vt 0.3712 0.7882
vt 0.1037 0.8694
vt 0.1735 0.1058
vt 0.8590 0.8914
vt 0.7659 0.8728
vt 0.8502 0.8473
vt 0.4722 0.4259
vt 0.5000 0.4230
vt 0.5278 0.4259
vt 0.5458 0.4311
vt 0.5710 0.4433
vt 0.5996 0.4672
vt 0.6161 0.4898
vt 0.3794 0.4980
vt 0.3889 0.4819
vt 0.0441 0.8205
vt 0.0226 0.7882
vt 0.0715 0.8479
vt 0.0077 0.7524
vt 0.0002 0.7144
vt 0.0002 0.6757
vt 0.0226 0.6019
vt 0.0077 0.6377
vt 0.0441 0.5696
vt 0.0715 0.5422
vt 0.1395 0.5059
vt 0.1775 0.4983
vt 0.1037 0.5207
vt 0.4213 0.4485
vt 0.2543 0.5059
vt 0.3497 0.5696
vt 0.3712 0.6019
vt 0.3223 0.5422
vt 0.3861 0.6377
vt 0.3936 0.6757
vt 0.3936 0.7144
vt 0.3861 0.7524
vt 0.3497 0.8205
vt 0.3223 0.8479
vt 0.2901 0.8694
vt 0.2543 0.8842
vt 0.2163 0.8918
vt 0.1775 0.8918
vt 0.1395 0.8842
vt 0.2163 0.4983
vt 0.7677 0.8637
vt 0.7713 0.8550
vt 0.8436 0.9144
vt 0.8087 0.9250
vt 0.7995 0.8319
vt 0.7765 0.8473
vt 0.7909 0.8355
vt 0.7995 0.9231
vt 0.7713 0.9000
vt 0.8180 0.8301
vt 0.8272 0.8319
vt 0.8358 0.8355
vt 0.8436 0.8407
vt 0.8590 0.8637
vt 0.8608 0.8728
vt 0.8554 0.8550
vt 0.8608 0.8822
vt 0.7831 0.9144
vt 0.8502 0.9078
vt 0.8272 0.9231
vt 0.8358 0.9196
vt 0.8180 0.9250
vt 0.7765 0.9078
vt 0.7659 0.8822
vt 0.8087 0.8301
vt 0.7909 0.9196
vt 0.7831 0.8407
vt 0.7677 0.8914
vt 0.8554 0.9000
vn -0.7232 -0.5935 0.3532
vn -0.0980 0.9952 -0.0000
vn -0.2903 0.9569 0.0000
vn -0.4714 0.8819 0.0000
vn -0.6344 0.7730 0.0000
vn -0.7730 0.6344 0.0000
vn -0.8819 0.4714 0.0000
vn -0.9569 0.2903 0.0000
vn -0.9952 0.0980 0.0000
vn -0.9952 -0.0980 -0.0000
vn -0.9569 -0.2903 0.0000
vn -0.8819 -0.4714 0.0000
vn -0.7730 -0.6344 0.0000
vn -0.6344 -0.7730 -0.0000
vn -0.4714 -0.8819 0.0000
vn -0.2903 -0.9569 0.0000
vn -0.0980 -0.9952 0.0000
vn 0.0980 -0.9952 0.0000
vn 0.2903 -0.9569 0.0000
vn 0.4714 -0.8819 0.0000
vn 0.6344 -0.7730 -0.0000
vn 0.7730 -0.6344 0.0000
vn 0.8819 -0.4714 0.0000
vn 0.9569 -0.2903 -0.0000
vn 0.9952 -0.0980 -0.0000
vn 0.9952 0.0980 0.0000
vn 0.9569 0.2903 0.0000
vn 0.8819 0.4714 -0.0000
vn 0.7730 0.6344 0.0000
vn 0.6344 0.7730 -0.0000
vn 0.4714 0.8819 -0.0000
vn 0.2903 0.9569 0.0000
vn 0.0980 0.9952 0.0000
vn 0.0000 -0.0000 1.0000
vn -0.9310 -0.0917 0.3532
vn -0.8953 -0.2716 0.3532
vn -0.8952 -0.2716 0.3532
vn -0.8251 -0.4410 0.3532
vn -0.5935 -0.7232 0.3532
vn -0.4410 -0.8251 0.3532
vn -0.2716 -0.8952 0.3532
vn -0.0917 -0.9310 0.3532
vn 0.0917 -0.9310 0.3532
vn 0.2716 -0.8952 0.3532
vn 0.2716 -0.8953 0.3532
vn 0.4410 -0.8251 0.3532
vn 0.5935 -0.7232 0.3532
vn 0.7232 -0.5935 0.3532
vn 0.8251 -0.4410 0.3532
vn 0.8952 -0.2716 0.3532
vn 0.8953 -0.2716 0.3532
vn 0.9310 -0.0917 0.3532
vn 0.9310 0.0917 0.3532
vn 0.8952 0.2716 0.3532
vn 0.8251 0.4410 0.3532
vn 0.7232 0.5935 0.3532
vn 0.5935 0.7232 0.3532
vn 0.4410 0.8251 0.3532
vn 0.2716 0.8953 0.3532
vn 0.2716 0.8952 0.3532
vn 0.0917 0.9310 0.3532
vn -0.0917 0.9310 0.3532
vn -0.2716 0.8952 0.3532
vn -0.4410 0.8251 0.3532
vn -0.5935 0.7232 0.3532
vn -0.7232 0.5935 0.3532
vn -0.8251 0.4410 0.3532
vn 0.0000 0.0000 -1.0000
vn -0.9310 0.0917 0.3532
vn -0.8952 0.2716 0.3532
s 1
f 10/1/1 8/2/1 9/3/1
s off
f 66/4/2 67/5/2 65/6/2
f 68/7/3 69/8/3 67/5/3
f 70/9/4 71/10/4 69/8/4
f 72/11/5 73/12/5 71/10/5
f 74/13/6 75/14/6 73/12/6
f 76/15/7 77/16/7 75/14/7
f 77/16/8 80/17/8 79/18/8
f 79/18/9 82/19/9 81/20/9
f 82/19/10 83/21/10 81/20/10
f 83/21/11 86/22/11 85/23/11
f 86/22/12 87/24/12 85/23/12
f 88/25/13 89/26/13 87/24/13
f 90/27/14 91/28/14 89/26/14
f 92/29/15 93/30/15 91/28/15
f 94/31/16 95/32/16 93/30/16
f 96/33/17 97/34/17 95/32/17
f 98/35/18 99/36/18 97/34/18
f 100/37/19 101/38/19 99/36/19
f 102/39/20 103/40/20 101/38/20
f 104/41/21 105/42/21 103/40/21
f 106/43/22 107/44/22 105/42/22
f 108/45/23 109/46/23 107/44/23
f 110/47/24 111/48/24 109/46/24
f 112/49/25 113/50/25 111/48/25
f 114/51/26 115/52/26 113/50/26
f 116/53/27 117/54/27 115/52/27
f 118/55/28 119/56/28 117/54/28
f 120/57/29 121/58/29 119/56/29
f 122/59/30 123/60/30 121/58/30
f 124/61/31 125/62/31 123/60/31
f 126/63/32 127/64/32 125/62/32
f 128/65/33 65/66/33 127/64/33
f 103/67/34 111/68/34 127/69/34
f 66/4/2 68/7/2 67/5/2
f 68/7/3 70/9/3 69/8/3
f 70/9/4 72/11/4 71/10/4
f 72/11/5 74/13/5 73/12/5
f 74/13/6 76/15/6 75/14/6
f 76/15/7 78/70/7 77/16/7
f 77/16/8 78/70/8 80/17/8
f 79/18/9 80/17/9 82/19/9
f 82/19/10 84/71/10 83/21/10
f 83/21/11 84/71/11 86/22/11
f 86/22/12 88/25/12 87/24/12
f 88/25/13 90/27/13 89/26/13
f 90/27/14 92/29/14 91/28/14
f 92/29/15 94/31/15 93/30/15
f 94/31/16 96/33/16 95/32/16
f 96/33/17 98/35/17 97/34/17
f 98/35/18 100/37/18 99/36/18
f 100/37/19 102/39/19 101/38/19
f 102/39/20 104/41/20 103/40/20
f 104/41/21 106/43/21 105/42/21
f 106/43/22 108/45/22 107/44/22
f 108/45/23 110/47/23 109/46/23
f 110/47/24 112/49/24 111/48/24
f 112/49/25 114/51/25 113/50/25
f 114/51/26 116/53/26 115/52/26
f 116/53/27 118/55/27 117/54/27
f 118/55/28 120/57/28 119/56/28
f 120/57/29 122/59/29 121/58/29
f 122/59/30 124/61/30 123/60/30
f 124/61/31 126/63/31 125/62/31
f 126/63/32 128/65/32 127/64/32
f 128/65/33 66/72/33 65/66/33
f 127/69/34 65/73/34 67/74/34
f 67/74/34 69/75/34 127/69/34
f 71/76/34 73/77/34 75/78/34
f 75/78/34 77/79/34 79/80/34
f 79/80/34 81/81/34 83/82/34
f 83/82/34 85/83/34 79/80/34
f 87/84/34 89/85/34 91/86/34
f 91/86/34 93/87/34 87/84/34
f 95/88/34 97/89/34 103/67/34
f 99/90/34 101/91/34 103/67/34
f 103/67/34 105/92/34 107/93/34
f 107/93/34 109/94/34 103/67/34
f 111/68/34 113/95/34 115/96/34
f 115/96/34 117/97/34 119/98/34
f 119/98/34 121/99/34 127/69/34
f 123/100/34 125/101/34 127/69/34
f 127/69/34 69/75/34 71/76/34
f 71/76/34 75/78/34 127/69/34
f 79/80/34 85/83/34 87/84/34
f 87/84/34 93/87/34 95/88/34
f 97/89/34 99/90/34 103/67/34
f 103/67/34 109/94/34 111/68/34
f 111/68/34 115/96/34 127/69/34
f 121/99/34 123/100/34 127/69/34
f 127/69/34 75/78/34 79/80/34
f 79/80/34 87/84/34 95/88/34
f 95/88/34 103/67/34 127/69/34
f 115/96/34 119/98/34 127/69/34
f 127/69/34 79/80/34 95/88/34
s 1
f 1/102/35 2/103/35 3/104/35
f 4/105/36 3/104/37 5/106/37
f 6/107/38 5/106/38 7/108/38
f 8/2/1 7/108/1 9/3/1
f 10/1/39 9/3/39 11/109/39
f 11/109/40 12/110/40 13/111/40
f 12/110/41 14/112/41 15/113/41
f 15/113/42 14/112/42 16/114/42
f 16/114/43 17/115/43 18/116/43
f 17/115/44 19/117/44 20/118/45
f 20/118/46 19/117/46 21/119/46
f 21/119/47 22/120/47 23/121/47
f 23/121/48 22/120/48 24/122/48
f 24/122/49 25/123/49 26/124/49
f 25/123/50 27/125/50 28/126/51
f 28/126/52 27/125/52 29/127/52
f 29/127/53 30/128/53 31/129/53
f 30/128/54 32/130/54 33/131/54
f 33/131/55 32/130/55 34/132/55
f 35/133/56 34/132/56 36/134/56
f 36/134/57 37/135/57 38/136/57
f 37/135/58 39/137/58 40/138/58
f 40/138/59 39/137/60 41/139/60
f 41/139/61 42/140/61 43/141/61
f 42/142/62 44/143/62 45/144/62
f 45/144/63 44/143/63 46/145/63
f 46/145/64 47/146/64 48/147/64
f 47/146/65 49/148/65 50/149/65
f 49/148/66 51/150/66 52/151/66
f 51/150/67 53/152/67 54/153/67
f 32/154/68 19/155/68 5/156/68
f 2/103/69 1/102/69 55/157/69
f 54/153/70 53/152/70 55/157/70
f 56/158/34 57/159/34 58/160/34
f 4/105/35 1/102/35 3/104/35
f 6/107/36 4/105/36 5/106/37
f 8/2/38 6/107/38 7/108/38
f 59/161/39 10/1/39 11/109/39
f 59/161/40 11/109/40 13/111/40
f 13/111/41 12/110/41 15/113/41
f 60/162/42 15/113/42 16/114/42
f 60/162/43 16/114/43 18/116/43
f 18/116/45 17/115/44 20/118/45
f 58/163/46 20/118/46 21/119/46
f 58/163/47 21/119/47 23/121/47
f 61/164/48 23/121/48 24/122/48
f 61/164/49 24/122/49 26/124/49
f 26/124/51 25/123/50 28/126/51
f 56/165/52 28/126/52 29/127/52
f 56/165/53 29/127/53 31/129/53
f 31/129/54 30/128/54 33/131/54
f 35/133/55 33/131/55 34/132/55
f 62/166/56 35/133/56 36/134/56
f 62/166/57 36/134/57 38/136/57
f 38/136/58 37/135/58 40/138/58
f 63/167/59 40/138/59 41/139/60
f 63/167/61 41/139/61 43/141/61
f 43/168/62 42/142/62 45/144/62
f 64/169/63 45/144/63 46/145/63
f 64/169/64 46/145/64 48/147/64
f 48/147/65 47/146/65 50/149/65
f 50/149/66 49/148/66 52/151/66
f 52/151/67 51/150/67 54/153/67
f 2/170/68 55/171/68 3/172/68
f 55/171/68 53/173/68 51/174/68
f 49/175/68 55/171/68 51/174/68
f 46/176/68 5/156/68 47/177/68
f 46/176/68 44/178/68 42/179/68
f 39/180/68 37/181/68 41/182/68
f 57/183/70 54/153/70 55/157/70
f 32/154/68 37/181/68 34/184/68
f 29/185/68 27/186/68 30/187/68
f 27/186/68 32/154/68 30/187/68
f 25/188/68 24/189/68 22/190/68
f 22/190/68 21/191/68 19/155/68
f 19/155/68 17/192/68 16/193/68
f 16/193/68 14/194/68 12/195/68
f 12/195/68 11/196/68 9/197/68
f 9/197/68 7/198/68 5/156/68
f 55/171/68 49/175/68 3/172/68
f 42/179/68 41/182/68 46/176/68
f 49/175/68 5/156/68 3/172/68
f 46/176/68 41/182/68 32/154/68
f 27/186/68 25/188/68 19/155/68
f 25/188/68 22/190/68 19/155/68
f 19/155/68 16/193/68 12/195/68
f 12/195/68 9/197/68 5/156/68
f 5/156/68 49/175/68 47/177/68
f 41/182/68 37/181/68 32/154/68
f 32/154/68 27/186/68 19/155/68
f 19/155/68 12/195/68 5/156/68
f 5/156/68 46/176/68 32/154/68
f 55/157/69 1/102/69 57/183/69
f 37/181/68 36/199/68 34/184/68
f 57/159/34 1/200/34 4/201/34
f 56/158/34 35/202/34 63/203/34
f 59/204/34 6/205/34 10/206/34
f 57/159/34 43/207/34 50/208/34
f 15/209/34 60/210/34 18/211/34
f 18/211/34 20/212/34 58/160/34
f 61/213/34 26/214/34 23/215/34
f 58/160/34 23/215/34 28/216/34
f 43/207/34 64/217/34 50/208/34
f 35/202/34 56/158/34 33/218/34
f 38/219/34 63/203/34 62/220/34
f 38/219/34 40/221/34 63/203/34
f 64/217/34 48/222/34 50/208/34
f 63/203/34 35/202/34 62/220/34
f 23/215/34 26/214/34 28/216/34
f 57/159/34 50/208/34 54/223/34
f 28/216/34 56/158/34 58/160/34
f 58/160/34 13/224/34 18/211/34
f 6/205/34 59/204/34 13/224/34
f 43/207/34 45/225/34 64/217/34
f 6/205/34 8/226/34 10/206/34
f 50/208/34 52/227/34 54/223/34
f 56/158/34 63/203/34 57/159/34
f 57/159/34 6/205/34 13/224/34
f 57/159/34 4/201/34 6/205/34
f 63/203/34 43/207/34 57/159/34
f 13/224/34 58/160/34 57/159/34
f 56/158/34 31/228/34 33/218/34
f 13/224/34 15/209/34 18/211/34
