# Blender v2.78 (sub 0) OBJ File: ''
# www.blender.org
o Branch.001_Plane.014_Branch.001_Plane.017
v -1.153128 3.463806 -2.281914
v -0.957794 3.630071 -2.067271
v -0.737905 3.620629 -2.260061
v -1.121849 3.396844 -2.687007
v -1.257738 3.365884 -2.447263
v -0.696818 3.444208 -2.681992
v -0.945557 3.566980 -2.494272
v -0.902899 3.272357 -2.735548
v -0.880725 3.659861 -2.032259
v -0.720351 3.752964 -1.753900
v -0.465834 3.745463 -1.898029
v -0.768630 3.663490 -2.428471
v -0.956499 3.610507 -2.231497
v -0.352555 3.644295 -2.331355
v -0.621469 3.767205 -2.173996
v -0.559404 3.518193 -2.458560
v -0.695134 3.535160 -1.701814
v -0.484680 3.773218 -1.698327
v -0.442059 3.739532 -1.970940
v -0.889156 3.362247 -1.994222
v -0.834504 3.385123 -1.737511
v -0.606685 3.465255 -2.267539
v -0.705736 3.594764 -1.994276
v -0.729277 3.267394 -2.151782
v -0.866893 3.320498 -2.003922
v -0.612813 3.498558 -1.878980
v -0.629815 3.682201 -2.106124
v -1.151931 3.409618 -2.287424
v -1.040655 3.233454 -2.104433
v -0.902175 3.701592 -2.475288
v -0.927047 3.585407 -2.162134
v -1.036026 3.465384 -2.509342
v -0.833810 3.611295 -2.486799
v -0.740123 3.856709 -2.308001
v -0.611423 3.681426 -2.134848
v -0.709621 3.240916 -2.507793
v -0.869956 3.433712 -2.588619
v -0.608315 3.470563 -2.350617
v -0.990195 3.340498 -1.926978
v -1.335696 3.288239 -2.132505
v -1.177653 3.234922 -1.916371
v -1.155629 3.390043 -2.499250
v -1.096525 3.473049 -2.185647
v -1.283153 3.196580 -2.361862
v -1.096621 3.464262 -2.577528
v -1.046885 3.670678 -2.322649
v -0.791601 3.543391 -2.269377
v -0.841360 3.225990 -2.789331
v -1.094094 3.324226 -2.743283
v -0.566859 3.200114 -2.466979
v -0.787118 3.429497 -2.562999
v -0.731052 3.059875 -2.631357
v 0.252410 3.218302 -2.429823
v 0.199660 3.478500 -2.226386
v -1.094159 3.236791 -2.759303
v -1.125951 3.470628 -2.558419
v -0.927523 3.366517 -2.405828
v -0.812604 2.985461 -2.815259
v -1.043388 3.079902 -2.877233
v -0.682386 3.020741 -2.442648
v -0.831075 3.211812 -2.636801
v -0.777321 2.861496 -2.615581
v -1.300986 3.061194 -2.329307
v -1.169258 3.331943 -2.255908
v -0.977840 3.289572 -2.443151
v -1.265785 2.835217 -2.634702
v -1.370434 2.886750 -2.405761
v -0.903756 2.973268 -2.717870
v -1.152558 3.094738 -2.577677
v -1.038958 2.767736 -2.656589
v -0.808594 3.029780 -2.713843
v -0.747428 3.303238 -2.581465
v -0.508481 3.311652 -2.709255
v -0.656246 2.853098 -3.015747
v -0.825523 2.859499 -2.822546
v -0.312735 3.047241 -2.979029
v -0.606411 3.115283 -2.905298
v -0.424031 2.819448 -2.977967
v -0.721049 3.053046 -2.575351
v -0.516304 3.248632 -2.433021
v -0.486342 3.389602 -2.669842
v -0.924789 3.085165 -2.906533
v -0.858416 2.949813 -2.691328
v -0.658874 3.345586 -3.066797
v -0.747022 3.277276 -2.769686
v -0.771192 3.113368 -3.092750
v -0.676489 3.032408 -2.735850
v -0.750298 3.332208 -2.709094
v -0.487255 3.395390 -2.691421
v -0.349132 2.857512 -2.824282
v -0.598258 2.847247 -2.762221
v -0.130625 3.163522 -2.699174
v -0.417099 3.138103 -2.815782
v -0.182732 2.917685 -2.665620
v -0.631273 3.501503 -2.888981
v -0.676284 3.670079 -2.606845
v -0.423969 3.568381 -2.505827
v -0.298938 3.332458 -3.055625
v -0.567649 3.390477 -3.064240
v -0.107671 3.290461 -2.679348
v -0.332436 3.503201 -2.800070
v -0.204204 3.158530 -2.895967
v -0.739936 3.259780 -2.449208
v -0.547800 3.453537 -2.264894
v -0.436625 3.570343 -2.503578
v -0.850960 3.280176 -2.838567
v -0.859718 3.156412 -2.595381
v -0.509227 3.502177 -2.944521
v -0.684702 3.472718 -2.666904
v -0.644955 3.272935 -2.984432
v -0.408039 3.677274 -2.723141
v -0.443217 3.884480 -2.484808
v -0.311490 3.709710 -2.313422
v -0.171606 3.368907 -2.768469
v -0.360231 3.528391 -2.860099
v -0.134681 3.314595 -2.367485
v -0.189566 3.568868 -2.550756
v -0.214516 3.207875 -2.590677
v 0.075154 3.436221 -2.580557
v 0.063405 3.359980 -2.134603
v 0.018592 3.244922 -2.396500
v -0.000126 3.812840 -1.377979
v 0.088795 3.477472 -2.230629
v -0.113105 3.465008 -2.609569
v -0.184931 3.670328 -2.308524
v 0.114838 3.612349 -2.197459
v 0.279544 3.320760 -2.794223
v -0.027955 3.336767 -2.797539
v 0.508972 3.344689 -2.379087
v 0.219305 3.527889 -2.523510
v 0.419712 3.161336 -2.604326
v 0.392513 3.519362 -2.625456
v 0.198415 3.730608 -2.488795
v 0.166969 3.560799 -2.270976
v 0.588622 3.213181 -2.481097
v 0.523183 3.368511 -2.683583
v 0.327253 3.166977 -2.173440
v 0.421272 3.417008 -2.346359
v 0.430655 3.055036 -2.384043
v 0.175943 3.500433 -2.343765
v 0.463600 3.286947 -2.592716
v 0.275513 3.226379 -2.348787
v -0.037374 3.103024 -2.662290
v -0.034083 3.302649 -2.400435
v 0.214928 3.416280 -2.490190
v 0.163749 3.114611 -3.014084
v -0.016969 2.995398 -2.847759
v 0.479369 3.338826 -2.848550
v 0.158005 3.312455 -2.779552
v 0.411995 3.107182 -2.968413
v 0.354365 3.337677 -2.897057
v 0.121872 3.511014 -2.735981
v 0.225369 3.414433 -2.482661
v 0.704949 3.169678 -2.771918
v 0.523674 3.224145 -2.971461
v 0.569142 3.137254 -2.371372
v 0.499526 3.344819 -2.621215
v 0.656052 3.000022 -2.588769
v -0.058627 3.130893 -2.786567
v 0.042903 3.411102 -2.701611
v 0.273011 3.300194 -2.610804
v 0.123120 2.800014 -2.841877
v -0.093173 2.938712 -2.841095
v 0.418889 2.900735 -2.598125
v 0.224434 3.062767 -2.777694
v 0.231402 2.735399 -2.640424
v 0.566548 3.126559 -2.958318
v 0.336185 3.327630 -2.907851
v 0.312605 3.236777 -2.653517
v 0.788476 2.928200 -2.719625
v 0.719957 2.994025 -2.958359
v 0.517616 2.938024 -2.430526
v 0.585067 3.126555 -2.667628
v 0.652407 2.788073 -2.584225
v 0.079784 2.899867 -2.749372
v 0.121932 3.100682 -2.507858
v 0.312990 3.237484 -2.654951
v 0.174566 2.923116 -3.127127
v 0.066300 2.792731 -2.926340
v 0.476266 3.183758 -3.054615
v 0.201772 3.120013 -2.908664
v 0.415243 2.949697 -3.147921
v 0.127679 2.872535 -2.921250
v 0.077022 3.149209 -2.791137
v 0.335424 3.158189 -2.709625
v 0.449264 2.692065 -3.019161
v 0.192804 2.700015 -3.005481
v 0.663911 2.891169 -2.752096
v 0.406325 2.956909 -2.912218
v 0.584296 2.662059 -2.825902
v -0.501484 3.610473 -2.467346
v -0.192180 3.737398 -2.052994
v -0.396231 3.703312 -2.264051
v -0.648095 3.879652 -2.350348
v -0.714177 3.254577 -2.241765
v -0.772028 3.244015 -2.644473
v -0.454128 3.541172 -2.924468
v -0.204434 3.463322 -2.672418
v -0.152683 3.459038 -2.397213
v -0.317092 3.695932 -2.760208
v -0.169859 3.521800 -2.129151
v -0.317157 3.603073 -2.519721
v 0.437146 3.550008 -2.078043
v 0.133156 3.378222 -2.036778
v 0.424272 3.584178 -2.487447
v 0.482661 3.538451 -2.586694
v 0.336648 3.310591 -2.210297
v 0.520420 3.180945 -2.513169
v 0.287252 3.139095 -2.380059
v 0.518413 3.384573 -2.813102
v 0.613254 3.167842 -2.621984
v -0.489252 3.521548 -2.613172
v -0.496072 3.535367 -2.618150
v -1.099000 3.213733 -2.541817
v 0.393062 3.044358 -2.789757
v 0.396269 3.048555 -2.791075
v 0.393229 3.049113 -2.792404
v 0.391246 3.046517 -2.791590
v -0.086843 3.809749 -1.653037
vt 0.0000 0.0000
vt 0.0000 0.0000
vt 0.0000 0.0000
vt 0.0000 0.0000
vt 0.0000 0.5228
vt 0.0000 0.0000
vt 0.4819 0.0000
vt 0.4819 1.0000
vt 0.0000 1.0000
vt 1.0000 0.5228
vt 0.4819 0.5228
vt 1.0000 1.0000
vt 0.0000 0.5228
vt 0.0000 0.0000
vt 0.4819 0.0000
vt 0.4819 1.0000
vt 0.0000 1.0000
vt 1.0000 0.5228
vt 0.4819 0.5228
vt 1.0000 1.0000
vt 0.0000 0.5228
vt 0.0000 0.0000
vt 0.4819 0.0000
vt 0.4819 1.0000
vt 0.0000 1.0000
vt 1.0000 0.5228
vt 0.4819 0.5228
vt 1.0000 1.0000
vt 0.0000 0.5228
vt 0.0000 0.0000
vt 0.4819 0.0000
vt 0.4819 1.0000
vt 0.0000 1.0000
vt 1.0000 0.5228
vt 0.4819 0.5228
vt 1.0000 1.0000
vt 0.0000 0.5228
vt 0.0000 0.0000
vt 0.4819 0.0000
vt 0.4819 1.0000
vt 0.0000 1.0000
vt 0.4819 1.0000
vt 0.0000 1.0000
vt 0.0000 0.5228
vt 1.0000 0.5228
vt 1.0000 1.0000
vt 0.0000 0.5228
vt 0.0000 0.0000
vt 0.4819 0.0000
vt 0.4819 1.0000
vt 0.0000 1.0000
vt 1.0000 0.5228
vt 0.4819 0.5228
vt 1.0000 1.0000
vt 0.0000 0.5228
vt 0.0000 0.0000
vt 0.4819 0.0000
vt 0.4819 1.0000
vt 0.0000 1.0000
vt 1.0000 0.5228
vt 0.4819 0.5228
vt 1.0000 1.0000
vt 0.0000 0.5228
vt 0.0000 0.0000
vt 0.4819 0.0000
vt 0.4819 1.0000
vt 0.0000 1.0000
vt 1.0000 0.5228
vt 0.4819 0.5228
vt 1.0000 1.0000
vt 0.0000 0.5228
vt 0.0000 0.0000
vt 0.4819 0.0000
vt 0.4819 1.0000
vt 0.0000 1.0000
vt 1.0000 0.5228
vt 0.4819 0.5228
vt 1.0000 1.0000
vt 0.0000 0.5228
vt 0.0000 0.0000
vt 0.4819 0.0000
vt 0.4819 1.0000
vt 0.0000 1.0000
vt 1.0000 0.5228
vt 0.4819 0.5228
vt 1.0000 1.0000
vt 0.0000 0.5228
vt 0.0000 0.0000
vt 0.4819 0.0000
vt 0.4819 1.0000
vt 0.0000 1.0000
vt 1.0000 0.5228
vt 0.4819 0.5228
vt 1.0000 1.0000
vt 0.0000 0.5228
vt 0.0000 0.0000
vt 0.4819 0.0000
vt 0.4819 1.0000
vt 0.0000 1.0000
vt 1.0000 0.5228
vt 0.4819 0.5228
vt 1.0000 1.0000
vt 0.0000 0.5228
vt 0.0000 0.0000
vt 0.4819 0.0000
vt 0.4819 1.0000
vt 0.0000 1.0000
vt 1.0000 0.5228
vt 0.4819 0.5228
vt 1.0000 1.0000
vt 0.0000 0.5228
vt 0.0000 0.0000
vt 0.4819 0.0000
vt 0.4819 1.0000
vt 0.0000 1.0000
vt 1.0000 0.5228
vt 0.4819 0.5228
vt 1.0000 1.0000
vt 1.0000 0.5228
vt 1.0000 1.0000
vt 0.4819 1.0000
vt 0.0000 0.5228
vt 0.0000 0.0000
vt 0.4819 0.0000
vt 0.4819 1.0000
vt 0.0000 1.0000
vt 1.0000 0.5228
vt 0.4819 0.5228
vt 1.0000 1.0000
vt 0.0000 0.5228
vt 0.0000 0.0000
vt 0.4819 0.0000
vt 0.4819 1.0000
vt 0.0000 1.0000
vt 1.0000 0.5228
vt 0.4819 0.5228
vt 1.0000 1.0000
vt 0.0000 0.5228
vt 0.0000 0.0000
vt 0.4819 0.0000
vt 0.4819 1.0000
vt 0.0000 1.0000
vt 1.0000 0.5228
vt 0.4819 0.5228
vt 1.0000 1.0000
vt 0.0000 0.5228
vt 0.0000 0.0000
vt 0.4819 0.0000
vt 0.4819 1.0000
vt 0.0000 1.0000
vt 1.0000 0.5228
vt 0.4819 0.5228
vt 1.0000 1.0000
vt 0.0000 0.5228
vt 0.0000 0.0000
vt 0.4819 0.0000
vt 0.4819 1.0000
vt 0.0000 1.0000
vt 1.0000 0.5228
vt 0.4819 0.5228
vt 1.0000 1.0000
vt 0.0000 0.5228
vt 0.0000 0.0000
vt 0.4819 0.0000
vt 0.4819 1.0000
vt 0.0000 1.0000
vt 1.0000 0.5228
vt 0.4819 0.5228
vt 1.0000 1.0000
vt 0.0000 0.5228
vt 0.0000 0.0000
vt 0.4819 0.0000
vt 0.4819 1.0000
vt 0.0000 1.0000
vt 1.0000 0.5228
vt 0.4819 0.5228
vt 1.0000 1.0000
vt 0.0000 0.5228
vt 0.0000 0.0000
vt 0.4819 0.0000
vt 0.4819 1.0000
vt 0.0000 1.0000
vt 1.0000 0.5228
vt 0.4819 0.5228
vt 1.0000 1.0000
vt 1.0000 0.0000
vt 1.0000 0.0000
vt 1.0000 0.0000
vt 1.0000 0.0000
vt 0.4819 0.5228
vt 0.4819 0.5228
vt 1.0000 0.0000
vt 1.0000 0.0000
vt 1.0000 0.0000
vt 1.0000 0.0000
vt 1.0000 0.0000
vt 1.0000 0.0000
vt 1.0000 0.0000
vt 1.0000 0.0000
vt 1.0000 0.0000
vt 1.0000 0.0000
vt 1.0000 0.5228
vt 0.4819 0.0000
vt 1.0000 0.0000
vt 1.0000 0.0000
vt 1.0000 0.0000
vt 1.0000 0.0000
vt 1.0000 0.0000
vt 1.0000 0.0000
vn -0.0243 -0.6188 0.7852
vn 0.7088 0.6528 -0.2671
vn -0.4501 0.8788 -0.1584
vn -0.3068 0.8671 -0.3924
vn -0.2078 0.9374 -0.2796
vn -0.3231 0.7765 -0.5409
vn -0.5071 0.8432 -0.1785
vn -0.0646 0.7961 -0.6017
vn -0.2220 0.9335 -0.2817
vn -0.0250 0.3247 -0.9455
vn -0.3048 0.9508 -0.0555
vn -0.1158 0.9601 -0.2544
vn -0.0369 0.9930 -0.1124
vn -0.1089 0.9015 -0.4189
vn -0.3596 0.9284 -0.0932
vn 0.1572 0.8924 -0.4229
vn -0.0507 0.9917 -0.1180
vn 0.2195 0.4907 -0.8433
vn -0.6980 0.7126 0.0702
vn -0.7334 0.6512 -0.1951
vn -0.6143 0.7662 -0.1885
vn -0.8079 0.5183 -0.2806
vn -0.7407 0.6646 0.0985
vn -0.6632 0.5560 -0.5010
vn -0.6247 0.7599 -0.1799
vn -0.6978 0.0134 -0.7161
vn -0.5531 0.4205 0.7192
vn -0.6477 0.5680 0.5077
vn -0.5133 0.6468 0.5641
vn -0.7568 0.5351 0.3753
vn -0.5965 0.3655 0.7146
vn -0.6531 0.7247 0.2198
vn -0.5227 0.6359 0.5679
vn -0.8116 0.5028 -0.2975
vn 0.7043 0.2952 -0.6456
vn 0.8359 0.0769 -0.5435
vn 0.7742 0.3112 -0.5512
vn 0.6317 0.2533 -0.7326
vn 0.6677 0.2633 -0.6963
vn -0.6548 0.7385 0.1608
vn -0.4071 0.7720 0.4882
vn -0.4220 0.7422 0.5206
vn -0.7622 0.6145 -0.2036
vn -0.8782 0.3396 -0.3369
vn 0.2144 0.7840 -0.5826
vn 0.4512 0.6484 -0.6132
vn 0.4707 0.7717 -0.4276
vn 0.4998 0.5064 -0.7027
vn 0.1773 0.7531 -0.6336
vn 0.7814 0.3708 -0.5020
vn 0.4589 0.7412 -0.4899
vn 0.7513 -0.1186 -0.6493
vn 0.4489 0.6674 -0.5942
vn 0.6736 0.5322 -0.5129
vn 0.6458 0.6503 -0.4000
vn 0.7435 0.3770 -0.5524
vn 0.4309 0.6272 -0.6488
vn 0.8761 0.3586 -0.3222
vn 0.6415 0.6461 -0.4136
vn 0.9265 -0.2237 -0.3026
vn -0.6994 0.5476 -0.4593
vn -0.5664 0.4608 -0.6833
vn -0.4899 0.5991 -0.6333
vn -0.5589 0.3090 -0.7695
vn -0.7436 0.4937 -0.4510
vn -0.3204 0.3610 -0.8758
vn -0.5024 0.5913 -0.6309
vn -0.1503 -0.1904 -0.9701
vn -0.6299 0.5075 -0.5880
vn -0.4292 0.4695 -0.7716
vn -0.3772 0.6538 -0.6560
vn -0.3742 0.3329 -0.8656
vn -0.6652 0.4476 -0.5976
vn -0.0128 0.4030 -0.9151
vn -0.4038 0.5991 -0.6914
vn 0.1492 -0.0775 -0.9858
vn -0.7087 0.4891 0.5085
vn -0.7556 0.6004 0.2618
vn -0.6388 0.6930 0.3343
vn -0.8313 0.5438 0.1149
vn -0.7489 0.4319 0.5026
vn -0.6984 0.7146 -0.0402
vn -0.6486 0.6823 0.3374
vn -0.7319 0.4144 -0.5409
vn -0.2303 0.1044 -0.9675
vn 0.0429 0.0993 -0.9941
vn 0.0009 0.2572 -0.9664
vn 0.1639 -0.0266 -0.9861
vn -0.2430 0.0354 -0.9694
vn 0.3600 0.1418 -0.9221
vn -0.0052 0.2440 -0.9698
vn 0.7140 -0.2411 -0.6574
vn 0.2192 0.8857 -0.4092
vn 0.4750 0.7867 -0.3943
vn 0.4441 0.8606 -0.2492
vn 0.5650 0.6675 -0.4849
vn 0.2006 0.8589 -0.4713
vn 0.7334 0.6172 -0.2849
vn 0.4385 0.8594 -0.2629
vn 0.8922 0.0776 -0.4449
vn -0.7466 0.6094 0.2669
vn -0.7145 0.6995 0.0095
vn -0.6092 0.7862 0.1036
vn -0.7569 0.6366 -0.1479
vn -0.7909 0.5564 0.2547
vn -0.5682 0.7760 -0.2738
vn -0.6208 0.7769 0.1048
vn -0.5110 0.4319 -0.7432
vn 0.7084 0.6197 -0.3378
vn 0.8736 0.4237 -0.2394
vn 0.8423 0.5269 -0.1136
vn 0.9188 0.2638 -0.2936
vn 0.6972 0.5936 -0.4019
vn 0.9825 0.1799 -0.0490
vn 0.8408 0.5259 -0.1284
vn 0.9091 -0.3935 -0.1370
vn 0.9511 -0.3077 -0.0276
vn 0.0651 0.8701 -0.4886
vn 0.3336 0.8140 -0.4755
vn 0.2951 0.8945 -0.3359
vn 0.4392 0.7029 -0.5595
vn 0.0494 0.8353 -0.5475
vn 0.6184 0.6971 -0.3627
vn 0.2894 0.8912 -0.3493
vn 0.8570 0.1772 -0.4839
vn 0.7396 0.6221 0.2571
vn 0.7836 0.4300 0.4483
vn 0.6723 0.5352 0.5115
vn 0.8532 0.2697 0.4464
vn 0.7775 0.5946 0.2048
vn 0.7223 0.1913 0.6646
vn 0.6818 0.5339 0.5001
vn 0.7312 -0.3846 0.5634
vn -0.7096 0.6049 -0.3613
vn -0.5026 0.6906 -0.5201
vn -0.4959 0.7803 -0.3810
vn -0.4199 0.6241 -0.6590
vn -0.7321 0.5512 -0.4004
vn -0.1973 0.7635 -0.6150
vn -0.5049 0.7709 -0.3882
vn 0.1768 0.4113 -0.8942
vn 0.4502 0.8805 -0.1487
vn 0.6177 0.7850 0.0469
vn 0.4927 0.8612 0.1245
vn 0.7449 0.6652 0.0507
vn 0.4815 0.8522 -0.2048
vn 0.7192 0.6208 0.3120
vn 0.4987 0.8597 0.1110
vn 0.9420 0.0803 0.3259
vn 0.2005 0.2910 -0.9355
vn 0.4150 0.1229 -0.9015
vn 0.4616 0.2715 -0.8445
vn 0.4347 -0.0507 -0.8991
vn 0.1531 0.2442 -0.9576
vn 0.6570 -0.0410 -0.7528
vn 0.4507 0.2650 -0.8524
vn 0.6272 -0.5776 -0.5224
vn 0.6073 0.7922 0.0598
vn 0.6633 0.6832 0.3055
vn 0.5316 0.7817 0.3262
vn 0.7568 0.5459 0.3595
vn 0.6536 0.7565 0.0210
vn 0.6205 0.5202 0.5868
vn 0.5422 0.7785 0.3162
vn 0.7282 -0.0463 0.6838
vn -0.8565 0.4897 -0.1628
vn -0.7123 0.5958 -0.3711
vn -0.6820 0.6912 -0.2390
vn -0.6603 0.5354 -0.5266
vn -0.8807 0.4319 -0.1944
vn -0.4557 0.7049 -0.5436
vn -0.6912 0.6804 -0.2436
vn -0.1223 0.3949 -0.9106
vn -0.0169 0.4883 -0.8725
vn 0.2545 0.4493 -0.8563
vn 0.2220 0.5905 -0.7759
vn 0.3595 0.3116 -0.8796
vn -0.0349 0.4278 -0.9032
vn 0.5526 0.4107 -0.7253
vn 0.2155 0.5807 -0.7851
vn 0.8091 -0.0943 -0.5800
vn 0.6451 0.4094 -0.6451
vn -0.5593 0.7931 0.2411
vn -0.5425 0.2158 -0.8119
s off
f 123/1/1 53/2/1 54/3/1
f 123/1/2 142/4/2 53/2/2
s 1
f 1/5/3 2/6/4 3/7/5
f 4/8/6 5/9/7 1/5/3
f 6/10/8 7/11/9 3/7/5
f 6/10/8 8/12/10 4/8/6
f 9/13/11 10/14/12 11/15/13
f 12/16/14 13/17/15 9/13/11
f 14/18/16 15/19/17 11/15/13
f 14/18/16 16/20/18 12/16/14
f 17/21/19 18/22/20 19/23/21
f 20/24/22 21/25/23 17/21/19
f 22/26/24 23/27/25 19/23/21
f 22/26/24 24/28/26 20/24/22
f 25/29/27 26/30/28 27/31/29
f 28/32/30 29/33/31 25/29/27
f 30/34/32 31/35/33 27/31/29
f 30/34/32 32/36/34 28/32/30
f 33/37/35 34/38/36 35/39/37
f 36/40/38 37/41/39 33/37/35
f 40/42/40 41/43/41 39/44/42
f 42/45/43 44/46/44 40/42/40
f 45/47/45 46/48/46 47/49/47
f 48/50/48 49/51/49 45/47/45
f 50/52/50 51/53/51 47/49/47
f 50/52/50 52/54/52 48/50/48
f 55/55/53 56/56/54 57/57/55
f 58/58/56 59/59/57 55/55/53
f 60/60/58 61/61/59 57/57/55
f 60/60/58 62/62/60 58/58/56
f 63/63/61 64/64/62 65/65/63
f 66/66/64 67/67/65 63/63/61
f 68/68/66 69/69/67 65/65/63
f 68/68/66 70/70/68 66/66/64
f 71/71/69 72/72/70 73/73/71
f 74/74/72 75/75/73 71/71/69
f 76/76/74 77/77/75 73/73/71
f 76/76/74 78/78/76 74/74/72
f 79/79/77 80/80/78 81/81/79
f 82/82/80 83/83/81 79/79/77
f 84/84/82 85/85/83 81/81/79
f 84/84/82 86/86/84 82/82/80
f 87/87/85 88/88/86 89/89/87
f 90/90/88 91/91/89 87/87/85
f 92/92/90 93/93/91 89/89/87
f 92/92/90 94/94/92 90/90/88
f 95/95/93 96/96/94 97/97/95
f 98/98/96 99/99/97 95/95/93
f 100/100/98 101/101/99 97/97/95
f 100/100/98 102/102/100 98/98/96
f 103/103/101 104/104/102 105/105/103
f 106/106/104 107/107/105 103/103/101
f 108/108/106 109/109/107 105/105/103
f 108/108/106 110/110/108 106/106/104
f 111/111/109 112/112/110 113/113/111
f 114/114/112 115/115/113 111/111/109
f 116/116/114 117/117/115 113/113/111
f 116/116/114 118/118/116 114/114/112
f 120/119/117 121/120/117 119/121/117
f 124/122/118 125/123/119 126/124/120
f 127/125/121 128/126/122 124/122/118
f 129/127/123 130/128/124 126/124/120
f 129/127/123 131/129/125 127/125/121
f 132/130/126 133/131/127 134/132/128
f 135/133/129 136/134/130 132/130/126
f 137/135/131 138/136/132 134/132/128
f 137/135/131 139/137/133 135/133/129
f 143/138/134 144/139/135 145/140/136
f 146/141/137 147/142/138 143/138/134
f 148/143/139 149/144/140 145/140/136
f 148/143/139 150/145/141 146/141/137
f 151/146/142 152/147/143 153/148/144
f 154/149/145 155/150/146 151/146/142
f 156/151/147 157/152/148 153/148/144
f 156/151/147 158/153/149 154/149/145
f 159/154/150 160/155/151 161/156/152
f 162/157/153 163/158/154 159/154/150
f 164/159/155 165/160/156 161/156/152
f 164/159/155 166/161/157 162/157/153
f 167/162/158 168/163/159 169/164/160
f 170/165/161 171/166/162 167/162/158
f 172/167/163 173/168/164 169/164/160
f 172/167/163 174/169/165 170/165/161
f 175/170/166 176/171/167 177/172/168
f 178/173/169 179/174/170 175/170/166
f 180/175/171 181/176/172 177/172/168
f 180/175/171 182/177/173 178/173/169
f 183/178/174 184/179/175 185/180/176
f 186/181/177 187/182/178 183/178/174
f 188/183/179 189/184/180 185/180/176
f 188/183/179 190/185/181 186/181/177
f 7/11/9 1/5/3 3/7/5
f 7/11/9 4/8/6 1/5/3
f 191/186/4 6/10/8 3/7/5
f 7/11/9 6/10/8 4/8/6
f 15/19/17 9/13/11 11/15/13
f 15/19/17 12/16/14 9/13/11
f 192/187/12 14/18/16 11/15/13
f 15/19/17 14/18/16 12/16/14
f 23/27/25 17/21/19 19/23/21
f 23/27/25 20/24/22 17/21/19
f 193/188/20 22/26/24 19/23/21
f 23/27/25 22/26/24 20/24/22
f 31/35/33 25/29/27 27/31/29
f 31/35/33 28/32/30 25/29/27
f 194/189/28 30/34/32 27/31/29
f 31/35/33 30/34/32 28/32/30
f 38/190/182 33/37/35 35/39/37
f 38/190/182 36/40/38 33/37/35
f 43/191/183 40/42/40 39/44/42
f 43/191/183 42/45/43 40/42/40
f 51/53/51 45/47/45 47/49/47
f 51/53/51 48/50/48 45/47/45
f 51/53/51 50/52/50 48/50/48
f 61/61/59 55/55/53 57/57/55
f 61/61/59 58/58/56 55/55/53
f 195/192/54 60/60/58 57/57/55
f 61/61/59 60/60/58 58/58/56
f 69/69/67 63/63/61 65/65/63
f 69/69/67 66/66/64 63/63/61
f 196/193/62 68/68/66 65/65/63
f 69/69/67 68/68/66 66/66/64
f 77/77/75 71/71/69 73/73/71
f 77/77/75 74/74/72 71/71/69
f 77/77/75 76/76/74 74/74/72
f 85/85/83 79/79/77 81/81/79
f 85/85/83 82/82/80 79/79/77
f 197/194/78 84/84/82 81/81/79
f 85/85/83 84/84/82 82/82/80
f 93/93/91 87/87/85 89/89/87
f 93/93/91 90/90/88 87/87/85
f 198/195/86 92/92/90 89/89/87
f 93/93/91 92/92/90 90/90/88
f 101/101/99 95/95/93 97/97/95
f 101/101/99 98/98/96 95/95/93
f 199/196/94 100/100/98 97/97/95
f 101/101/99 100/100/98 98/98/96
f 109/109/107 103/103/101 105/105/103
f 109/109/107 106/106/104 103/103/101
f 200/197/102 108/108/106 105/105/103
f 109/109/107 108/108/106 106/106/104
f 117/117/115 111/111/109 113/113/111
f 117/117/115 114/114/112 111/111/109
f 201/198/110 116/116/114 113/113/111
f 117/117/115 116/116/114 114/114/112
f 130/128/124 124/122/118 126/124/120
f 130/128/124 127/125/121 124/122/118
f 203/199/119 129/127/123 126/124/120
f 130/128/124 129/127/123 127/125/121
f 138/136/132 132/130/126 134/132/128
f 138/136/132 135/133/129 132/130/126
f 204/200/127 137/135/131 134/132/128
f 138/136/132 137/135/131 135/133/129
f 205/201/184 141/202/184 140/203/184
f 149/144/140 143/138/134 145/140/136
f 149/144/140 146/141/137 143/138/134
f 206/204/135 148/143/139 145/140/136
f 149/144/140 148/143/139 146/141/137
f 157/152/148 151/146/142 153/148/144
f 157/152/148 154/149/145 151/146/142
f 207/205/143 156/151/147 153/148/144
f 157/152/148 156/151/147 154/149/145
f 165/160/156 159/154/150 161/156/152
f 165/160/156 162/157/153 159/154/150
f 208/206/151 164/159/155 161/156/152
f 165/160/156 164/159/155 162/157/153
f 173/168/164 167/162/158 169/164/160
f 173/168/164 170/165/161 167/162/158
f 209/207/159 172/167/163 169/164/160
f 173/168/164 172/167/163 170/165/161
f 181/176/172 175/170/166 177/172/168
f 181/176/172 178/173/169 175/170/166
f 210/208/167 180/175/171 177/172/168
f 181/176/172 180/175/171 178/173/169
f 189/184/180 183/178/174 185/180/176
f 189/184/180 186/181/177 183/178/174
f 211/209/175 188/183/179 185/180/176
f 189/184/180 188/183/179 186/181/177
