# Blender v2.71 (sub 0) OBJ File: ''
# www.blender.org
o Tree.002_Plane.105
v 0.610723 3.393872 0.370524
v 0.205724 2.089361 0.162440
v 0.558149 3.413346 0.356996
v 0.073713 1.821916 0.157370
v 0.302350 2.122949 0.194170
v 0.573250 3.410075 0.338400
v 0.221462 2.027252 0.272352
v -0.086772 2.814161 -1.150480
v -0.061693 2.761408 -1.078423
v -0.109168 2.800960 -1.091853
v -0.047007 1.967058 -0.684851
v 0.033250 1.993914 -0.728449
v 0.010497 2.025665 -0.641766
v -0.052848 1.603662 -0.406328
v 0.028853 3.569940 -1.241358
v 0.451825 3.931967 -1.218057
v 0.482232 3.943435 -1.208511
v 0.056703 3.589980 -1.205017
v -0.008063 3.596704 -1.196945
v 0.445161 3.943675 -1.210088
v -0.411430 2.144092 -0.655470
v -0.403798 2.072204 -0.690993
v -0.113949 1.542131 -0.504985
v -0.125717 1.553938 -0.386784
v -0.365178 2.135179 -0.719931
v -0.762572 2.538762 -0.934683
v -0.799561 2.541188 -0.872493
v 0.015876 1.578737 -0.016678
v -0.001063 2.150423 0.540869
v 0.053723 2.095285 0.470996
v 0.101847 1.647104 0.174518
v 0.029336 2.050048 0.473167
v -0.015987 1.583091 0.095106
v 0.039852 2.549628 1.681264
v -0.096617 1.333947 -0.045477
v -0.053443 1.392204 0.087664
v -0.415492 3.429801 0.168125
v -0.405977 3.442620 0.197080
v -0.343377 3.369383 0.114837
v 0.018082 1.424105 -0.093718
v -0.388398 3.429945 0.172422
v -0.091333 1.046439 -0.113524
v -0.107607 -0.021799 -0.109774
v 0.026601 1.115069 -0.133668
v 0.046081 -0.021724 -0.115565
v 0.048438 -0.021715 0.060858
v -0.092805 -0.021837 0.066243
v -0.012532 1.270004 -0.143559
v 0.070245 1.285931 -0.083923
v 0.079048 1.305974 0.019741
v -0.131528 1.148711 0.010626
v -0.016205 1.578289 -0.505695
v -0.343034 3.178420 0.120167
v -0.877419 3.284198 -0.131904
v -0.860638 3.312780 -0.141126
v -0.322712 3.218727 0.111046
v -0.864170 3.318805 -0.110050
v -0.328927 3.226150 0.155174
v 0.045948 3.639279 -1.255447
v -0.105740 3.745045 -1.826492
v -0.087890 3.773627 -1.819594
v 0.066014 3.679573 -1.245775
v -0.113935 3.779674 -1.802268
v 0.028265 3.687013 -1.222084
v 0.387550 2.476446 0.257565
v 0.685604 2.731204 -0.165401
v 0.729921 2.723171 -0.170048
v 0.979519 2.839194 -0.611460
v 0.727770 2.755887 -0.156917
v 0.391479 2.509570 0.289324
v 0.348900 2.519012 0.277522
v 0.421053 2.822283 0.321658
v -0.031281 3.059311 0.558922
v -0.490764 3.181036 0.849047
v -0.054634 3.092068 0.541856
v 0.431524 2.855418 0.291465
v 0.470189 2.859976 0.340324
v -0.012474 3.139538 -1.181606
v 0.202102 3.259768 -1.703285
v 0.430931 3.257750 -2.199351
v 0.401748 3.219563 -2.208951
v 0.244770 3.284296 -1.709347
v -0.003392 3.179843 -1.161263
v -0.047508 3.187275 -1.167547
v 0.402672 3.244614 -2.208911
v -0.095483 2.003933 0.005071
v 0.202990 2.257964 -0.418039
v 0.247294 2.249859 -0.422681
v 0.497086 2.365246 -0.864151
v 0.245195 2.282585 -0.409565
v -0.091504 2.037054 0.036796
v -0.134059 2.046544 0.024992
v -0.251583 2.619375 0.074608
v -0.654531 2.739589 0.469365
v -0.697867 2.729021 0.461605
v -1.044320 2.712521 0.849297
v -0.696130 2.764122 0.458106
v -0.251913 2.659668 0.052331
v -0.213848 2.667089 0.075510
v 0.055714 2.440204 1.390832
v 0.605161 2.667699 1.324482
v 0.602813 2.666768 1.360806
v 0.579277 2.690571 1.354669
v 0.021437 2.473105 1.431421
v 0.051633 2.440295 1.437922
vt 0.000000 0.000000
vt 1.202000 3.524300
vt 1.593779 2.940048
vt 1.389200 6.004800
vt 0.851153 3.520876
vt 1.238800 6.003400
vt 0.651992 1.434924
vt 0.708114 2.521898
vt 0.469594 2.563415
vt 0.603689 0.832445
vt 0.366899 1.436268
vt 0.133629 2.466621
vt 0.364265 0.891980
vt 0.089315 1.449401
vt -0.094031 2.502840
vt 0.802700 1.465600
vt 0.672216 4.148229
vt 0.374211 4.135568
vt 0.601413 6.526911
vt 0.247202 6.569402
vt 0.147640 4.158658
vt -0.090075 4.145865
vt -0.019400 6.557100
vt 0.714546 6.551152
vt 0.766620 1.665626
vt 0.465795 1.643513
vt 0.351990 0.153562
vt 0.182847 1.672843
vt -0.064246 1.674796
vt 0.058605 0.196061
vt 0.279796 3.926223
vt 0.279358 3.853145
vt 0.745789 3.849319
vt 0.093483 1.504463
vt 0.188166 3.790083
vt -0.156431 3.519212
vt 0.633215 1.604701
vt 1.109200 1.876800
vt 0.797148 3.461154
vt 0.388800 1.423600
vt 0.544155 3.417990
vt -0.109650 6.510394
vt 0.829300 -0.026000
vt 1.201060 0.152470
vt 0.505320 7.209363
vt 1.429800 0.392900
vt 1.045972 7.223453
vt -0.076800 0.396300
vt 0.190336 0.363669
vt 0.286423 3.927289
vt 0.491342 0.090727
vt 0.201721 7.168251
vt -0.228491 7.184797
vt 1.532145 -0.022220
vt 1.571861 1.274730
vt 1.245655 1.392615
vt 1.030977 1.749501
vt 1.062064 -0.009602
vt 0.735849 1.802337
vt 0.490528 -0.009351
vt 1.954700 -0.031000
vt 0.066632 -0.010298
vt 0.132996 1.989865
vt -0.067986 1.674267
vt 0.497185 -0.014546
vt 0.251150 0.085962
vt 0.076129 0.860012
vt -0.023000 0.751800
vt -0.144300 0.178900
vt 0.833443 0.682964
vt 0.415114 2.620584
vt 0.120128 2.394137
vt 0.552101 3.545845
vt 0.194555 2.975159
vt 1.441204 2.336978
vt 0.859350 5.994074
vt 1.538200 6.006200
vt 0.830200 0.918100
vt 0.744773 0.011556
vt -0.079800 0.075800
vt -0.181145 1.948468
vt 0.244685 6.518903
vt 1.758562 1.519339
vt 1.711669 1.805185
vt 1.355418 1.653471
vt 0.058554 0.253920
vt 0.758696 0.059909
vt 1.931000 1.988000
vt 1.393928 2.052983
vt 0.087620 -0.155800
vt -0.055800 -0.165400
vt -0.059100 -0.813900
vt -0.234025 -0.179758
vt -0.234936 -0.836859
vt 0.076020 -0.797233
vt 0.316600 -0.837300
vt 0.310100 -0.178800
vt 0.087537 -0.155794
vt 0.277494 -0.174754
vt 0.066800 -0.154200
vt -0.095389 -0.170298
vt -0.312000 -0.177900
vt 0.230240 0.483470
vt -0.053197 0.480324
vt 0.194497 -0.164015
vt -0.120699 -0.173429
vt 0.075933 -0.797222
vt -0.075498 0.484993
vt -0.006817 0.480548
vt 0.186900 0.492900
vt -0.253185 0.470343
vt 0.316500 0.477200
vt -0.170004 0.477885
vt -0.092128 0.480211
vt 0.193386 -0.811967
vt 0.193603 -0.164343
vt -0.120393 -0.173391
vt -0.116352 -0.825727
vt 0.066100 -0.796000
vt -0.300300 -0.835100
vn 0.272400 0.068500 -0.959800
vn -0.146200 0.250900 -0.956900
vn -0.775700 0.624700 -0.089400
vn -0.281000 -0.034800 0.959100
vn 0.925800 -0.156700 -0.344000
vn -0.091200 0.173600 -0.980600
vn -0.968400 -0.045700 -0.245200
vn -0.906200 0.069200 0.417100
vn -0.109500 -0.248400 -0.962400
vn -0.489600 -0.463600 -0.738500
vn 0.716000 -0.305300 -0.627700
vn 0.880100 0.262400 0.395600
vn 0.835300 -0.322800 -0.445000
vn 0.288900 0.419800 0.860400
vn -0.776500 0.543600 0.318600
vn -0.000400 0.015600 -0.999900
vn 0.144000 -0.123700 -0.981800
vn 0.410000 -0.376700 0.830700
vn 0.624700 -0.446100 0.640900
vn -0.372800 0.516200 0.771100
vn -0.091400 0.385200 0.918300
vn -0.707400 -0.605600 -0.364400
vn 0.742200 0.321600 -0.587900
vn 0.515100 0.583500 0.627800
vn -0.241300 0.576300 -0.780700
vn -0.785700 0.593500 0.174000
vn 0.442900 0.505900 -0.740200
vn -0.689700 0.669900 -0.274800
vn 0.778300 0.448500 -0.439300
vn 0.242300 -0.420900 0.874100
vn -0.337300 0.068500 0.938900
vn 0.239100 -0.622600 0.745100
vn 0.009800 0.353900 0.935200
vn -0.919700 0.111100 -0.376600
vn -0.460500 -0.165000 0.872200
vn -0.962500 0.138900 -0.232800
vn -0.209700 -0.065800 0.975600
vn 0.581100 0.406500 -0.705000
vn 0.085500 0.188300 -0.978400
vn 0.830200 0.553400 0.067100
vn -0.755600 0.000100 -0.655000
vn -0.697500 -0.184200 -0.692500
vn 0.555800 -0.166000 -0.814500
vn 0.848000 0.016600 -0.529600
vn 0.688100 -0.024200 -0.725200
vn 0.851700 -0.185300 0.490200
vn 0.724300 -0.022400 0.689200
vn -0.670200 -0.003500 0.742200
vn -0.963900 0.038100 0.263500
vn -0.831800 0.234800 0.502900
vn 0.079800 -0.146100 0.986000
vn -0.719100 0.284600 -0.634000
vn 0.852100 -0.203700 0.482200
vn 0.731100 0.619500 -0.285800
vn -0.118700 -0.979500 -0.163000
vn 0.446800 0.223400 -0.866300
vn 0.421400 0.593900 -0.685400
vn -0.251600 0.635700 0.729800
vn -0.238700 0.650200 0.721300
vn -0.184300 -0.982600 -0.021700
vn 0.048100 -0.979500 -0.195800
vn 0.950300 0.223700 -0.216700
vn 0.795700 0.593800 -0.119600
vn -0.720100 0.635700 0.278000
vn -0.705100 0.650400 0.282300
vn -0.102000 -0.982700 -0.154900
vn 0.077700 -0.914700 -0.396600
vn -0.794900 0.104700 -0.597600
vn 0.573300 -0.815100 0.082700
vn 0.386000 0.788400 0.478900
vn 0.574200 0.438400 0.691400
vn -0.714300 0.684700 -0.145000
vn 0.499600 0.193400 -0.844400
vn -0.552800 -0.675400 -0.488100
vn -0.537500 -0.658000 -0.527300
vn -0.587000 -0.447300 -0.674800
vn -0.395800 -0.905900 0.150500
vn 0.127900 -0.569000 0.812300
vn -0.519600 -0.655800 -0.547700
vn 0.022400 -0.989300 -0.144200
vn -0.844900 0.412000 -0.341100
vn 0.759600 0.577700 0.298800
vn -0.314500 -0.948000 -0.048800
vn 0.533000 0.814600 0.228800
vn 0.685600 0.587500 0.429900
vn -0.761600 0.558900 -0.327900
vn -0.737700 0.645200 -0.198500
vn 0.076200 -0.915000 -0.396100
vn -0.794800 0.105600 -0.597600
vn 0.572000 -0.816000 0.083100
vn 0.387200 0.788100 0.478500
vn 0.574800 0.438000 0.691200
vn -0.713300 0.685600 -0.145500
vn 0.500000 0.192200 -0.844400
vn -0.071600 -0.990000 0.121700
vn 0.638400 -0.032200 0.769000
vn -0.463100 -0.782500 -0.416200
vn -0.350200 0.874100 -0.336500
vn -0.455600 0.587900 -0.668500
vn 0.599700 0.645100 0.473500
vn -0.681300 -0.059300 0.729600
vn 0.021400 -0.332900 -0.942700
vn 0.140800 -0.571100 -0.808700
vn 0.374700 -0.689100 0.620200
vn -0.329800 0.920300 0.210300
vn -0.312600 0.899100 0.306500
vn 0.280000 -0.381400 0.881000
s off
f 1/1/1 2/1/1 3/1/1
s 1
f 2/2/2 4/3/3 3/4/4
f 5/5/5 2/2/2 6/6/6
f 11/7/7 10/8/8 8/9/9
f 23/10/10 11/7/7 12/11/11
f 11/7/7 8/9/9 12/11/11
f 12/11/11 8/9/9 9/12/12
f 52/13/13 12/11/11 13/14/14
f 13/14/14 9/12/12 10/15/8
f 13/16/14 11/7/7 23/10/10
f 8/9/9 19/17/15 15/18/16
f 15/18/16 16/19/17 17/20/18
f 8/9/9 15/18/16 18/21/19
f 18/21/19 19/22/15 9/12/12
f 17/20/18 20/23/20 19/22/15
f 20/24/20 16/19/17 19/17/15
f 21/25/21 22/26/22 23/27/10
f 25/28/23 21/29/21 14/30/24
f 23/27/10 22/26/22 25/28/23
f 25/28/23 26/31/25 27/32/26
f 22/26/22 21/25/21 27/33/26
f 28/34/27 29/35/28 30/36/29
f 31/37/30 4/38/3 30/39/29
f 33/40/31 31/37/30 32/41/32
f 28/34/27 33/40/31 29/35/28
f 30/36/29 29/35/28 34/42/33
f 35/43/34 36/44/35 37/45/36
f 36/44/35 33/46/31 38/47/37
f 33/48/31 28/49/27 39/50/38
f 40/51/39 35/43/34 37/45/36
f 39/50/38 41/52/40 38/53/37
f 39/50/38 37/45/36 41/52/40
f 43/54/41 42/55/42 44/56/43
f 44/56/43 49/57/44 45/58/45
f 49/57/44 50/59/46 46/60/47
f 42/55/42 43/54/41 47/61/48
f 47/62/48 36/63/35 51/64/49
f 42/65/42 23/10/10 52/13/13
f 44/66/43 52/13/13 14/67/24
f 14/67/24 24/68/50 51/69/49
f 24/70/50 23/10/10 42/65/42
f 31/71/30 33/72/31 36/63/35
f 31/71/30 7/73/51 4/74/3
f 50/59/46 5/5/5 7/73/51
f 28/75/27 2/2/2 5/5/5
f 6/6/6 2/2/2 3/4/52
f 1/76/53 5/5/5 6/6/6
f 7/73/51 5/5/5 1/76/53
f 4/74/3 7/73/51 1/76/53
f 3/4/4 4/3/3 1/77/53
f 52/13/13 23/10/10 12/11/11
f 14/67/24 52/13/13 13/14/14
f 13/14/14 12/11/11 9/12/12
f 14/78/24 13/16/14 23/10/10
f 13/16/14 10/8/8 11/7/7
f 15/18/16 19/17/15 16/19/17
f 9/12/12 8/9/9 18/21/19
f 18/21/19 15/18/16 17/20/18
f 18/21/19 17/20/18 19/22/15
f 9/12/12 19/22/15 10/15/8
f 10/8/8 19/17/15 8/9/9
f 24/79/50 21/25/21 23/27/10
f 14/30/24 21/29/21 24/80/50
f 23/27/10 25/28/23 14/30/24
f 26/31/25 22/26/22 27/33/26
f 25/28/23 22/26/22 26/31/25
f 21/29/21 25/28/23 27/32/26
f 4/81/3 28/34/27 30/36/29
f 32/41/32 31/37/30 30/39/29
f 29/35/28 33/40/31 32/41/32
f 32/41/32 30/39/29 34/82/33
f 29/35/28 32/41/32 34/42/33
f 37/45/36 36/44/35 38/47/37
f 38/53/37 33/48/31 39/50/38
f 28/49/27 40/51/39 39/50/38
f 39/50/38 40/51/39 37/45/36
f 45/58/45 43/54/41 44/56/43
f 45/58/45 49/57/44 46/60/47
f 51/83/49 42/55/42 47/61/48
f 51/83/49 35/84/34 48/85/54
f 46/60/47 50/59/46 36/63/35
f 44/56/43 48/85/54 49/57/44
f 47/62/48 46/60/47 36/63/35
f 44/66/43 42/65/42 52/13/13
f 48/86/54 44/66/43 14/67/24
f 48/86/54 14/67/24 51/69/49
f 51/87/49 24/70/50 42/65/42
f 51/83/49 36/88/35 35/84/34
f 50/59/46 31/71/30 36/63/35
f 48/85/54 35/84/34 40/89/39
f 31/71/30 50/59/46 7/73/51
f 50/59/46 49/57/44 5/5/5
f 49/57/44 40/89/39 5/5/5
f 40/89/39 28/75/27 5/5/5
f 28/75/27 4/3/3 2/2/2
f 54/90/55 55/91/56 56/92/57
f 55/91/56 57/93/58 58/94/59
f 54/90/55 53/95/60 58/96/59
f 53/95/60 54/90/55 56/92/57
f 56/92/57 55/91/56 58/94/59
f 57/97/58 54/90/55 58/96/59
f 60/98/61 61/91/62 62/92/63
f 61/91/62 63/93/64 64/94/65
f 60/98/61 59/95/66 64/96/65
f 59/95/66 60/98/61 62/92/63
f 62/92/63 61/91/62 64/94/65
f 63/97/64 60/98/61 64/96/65
f 65/95/67 66/99/68 67/100/69
f 67/100/69 69/101/70 70/92/71
f 71/94/72 69/101/70 66/102/68
f 66/99/68 65/95/67 71/96/72
f 67/100/69 66/99/68 68/103/73
f 65/95/67 67/100/69 70/92/71
f 67/100/69 68/103/73 69/101/70
f 70/92/71 69/101/70 71/94/72
f 66/102/68 69/101/70 68/104/73
f 73/105/74 75/106/75 76/92/76
f 73/105/74 72/107/77 77/96/78
f 72/107/77 73/105/74 76/92/76
f 73/105/74 74/108/79 75/106/75
f 78/95/80 79/99/81 80/109/82
f 79/99/81 81/110/83 80/109/82
f 80/109/82 82/101/84 83/92/85
f 80/109/82 85/111/86 82/101/84
f 84/94/87 82/101/84 79/102/81
f 79/99/81 78/95/80 84/96/87
f 78/95/80 80/109/82 83/92/85
f 83/92/85 82/101/84 84/94/87
f 79/102/81 82/101/84 85/111/86
f 85/112/86 81/110/83 79/99/81
f 86/95/88 87/99/89 88/100/90
f 88/100/90 90/101/91 91/92/92
f 92/94/93 90/101/91 87/102/89
f 87/99/89 86/95/88 92/96/93
f 88/100/90 87/99/89 89/113/94
f 86/95/88 88/100/90 91/92/92
f 88/100/90 89/113/94 90/101/91
f 91/92/92 90/101/91 92/94/93
f 87/102/89 90/101/91 89/113/94
f 93/95/95 94/99/96 95/100/97
f 95/100/97 97/101/98 98/92/99
f 99/94/100 97/101/98 94/102/96
f 94/99/96 93/95/95 99/96/100
f 95/100/97 94/99/96 96/114/101
f 93/95/95 95/100/97 98/92/99
f 95/100/97 96/114/101 97/101/98
f 98/92/99 97/101/98 99/94/100
f 94/102/96 97/101/98 96/114/101
f 100/115/102 101/116/103 102/100/104
f 102/100/104 103/117/105 104/118/106
f 104/118/106 103/117/105 101/102/103
f 105/119/107 100/115/102 102/100/104
f 105/119/107 102/100/104 104/118/106
f 100/120/102 104/118/106 101/102/103
f 49/57/44 48/85/54 40/89/39
